<svg xmlns="http://www.w3.org/2000/svg" viewBox="0 0 100 100"><path d="M33.421 38.658h4.737v4.736h-4.737zM47.631 38.658h4.737v4.736h-4.737zM61.842 38.658h4.737v4.736h-4.737zM76.053 38.658h4.737v4.736h-4.737zM33.421 57.605h4.737v4.736h-4.737zM47.631 57.605h4.737v4.736h-4.737zM19.21 57.605h4.737v4.736H19.21zM33.421 76.553h4.737v4.736h-4.737zM47.631 76.553h4.737v4.736h-4.737zM61.842 76.553h4.737v4.736h-4.737zM19.21 76.553h4.737v4.736H19.21zM76.053 57.605h4.737v4.736h-4.737zM64.21 52.868a7.106 7.106 0 1 0 .001 14.211 7.106 7.106 0 0 0-.001-14.211"/><path d="M90.263 5.5H9.737A4.74 4.74 0 0 0 5 10.237v80.525A4.739 4.739 0 0 0 9.737 95.5h80.526A4.739 4.739 0 0 0 95 90.763V10.237A4.74 4.74 0 0 0 90.263 5.5m0 80.526a4.738 4.738 0 0 1-4.737 4.736H14.474a4.738 4.738 0 0 1-4.737-4.736V33.921a4.74 4.74 0 0 1 4.737-4.736h71.053a4.74 4.74 0 0 1 4.737 4.736v52.105z"/></svg>