<svg xmlns="http://www.w3.org/2000/svg" viewBox="0 0 32 32"><path d="M27.08,17.47a11.76,11.76,0,0,0,.1-1.47,11.76,11.76,0,0,0-.1-1.47l3.15-2.47a.76.76,0,0,0,.18-1l-3-5.19a.75.75,0,0,0-.91-.33L22.8,7.08a10.87,10.87,0,0,0-2.52-1.47l-.57-4A.73.73,0,0,0,19,1H13a.73.73,0,0,0-.73.63l-.57,4A11.44,11.44,0,0,0,9.21,7.08L5.49,5.58a.73.73,0,0,0-.91.33l-3,5.19a.74.74,0,0,0,.18,1l3.15,2.47A12,12,0,0,0,4.82,16a12,12,0,0,0,.1,1.47L1.78,19.95a.76.76,0,0,0-.18,1l3,5.19a.75.75,0,0,0,.91.33l3.71-1.5a10.87,10.87,0,0,0,2.52,1.47l.57,4A.73.73,0,0,0,13,31h6a.73.73,0,0,0,.73-.63l.57-4a11.44,11.44,0,0,0,2.52-1.47l3.71,1.5a.73.73,0,0,0,.91-.33l3-5.19a.76.76,0,0,0-.18-1ZM16,21.25A5.25,5.25,0,1,1,21.22,16,5.24,5.24,0,0,1,16,21.25Z"/></svg>