<svg height="100" width="100" xmlns="http://www.w3.org/2000/svg" viewBox="0 0 96 96"><path d="M26.17 40a3.27 3.27 0 0 1 3.26-3.28h21.33a3.27 3.27 0 0 1 0 6.54H29.43a3 3 0 0 1-1.09-.26 3.25 3.25 0 0 1-2.17-3zm2.17 19a3 3 0 0 0 1.09.19h21.33a3.27 3.27 0 0 0 0-6.54H29.43A3.27 3.27 0 0 0 28.34 59zm1.09 16.15h21.33a3.27 3.27 0 1 0 0-6.53H29.43a3.27 3.27 0 0 0 0 6.53zm54-67.08v64.07a3.26 3.26 0 0 1-3.27 3.26H67.65V88a3.26 3.26 0 0 1-3.26 3.27H15.8A3.26 3.26 0 0 1 12.54 88V23.86a3.27 3.27 0 0 1 3.26-3.27h12.54V8.05a3.27 3.27 0 0 1 3.27-3.27h48.58a3.26 3.26 0 0 1 3.27 3.27zM61.11 27.12h-42v57.56h42zm15.82-15.8H34.88v9.27h29.51a3.27 3.27 0 0 1 3.26 3.27v45h9.28z" data-name="Artboard 28"/></svg>