<svg xmlns="http://www.w3.org/2000/svg" viewBox="0 0 32 32"><path d="M22.56,31H3.82A2.82,2.82,0,0,1,1,28.18V7.57A2.82,2.82,0,0,1,3.82,4.75H6.63a.94.94,0,0,1,0,1.88H3.82a.94.94,0,0,0-.94.94V28.18a.94.94,0,0,0,.94.94H22.56a.94.94,0,0,0,.94-.94V25.31a.94.94,0,1,1,1.87,0v2.88A2.82,2.82,0,0,1,22.56,31Zm1.88-17.81a.94.94,0,0,1-.94-.94V7.57a.94.94,0,0,0-.94-.94H19.75a.94.94,0,0,1,0-1.87h2.81a2.82,2.82,0,0,1,2.82,2.82v4.68A.94.94,0,0,1,24.44,13.19ZM18.81,9.44H7.56A1.88,1.88,0,0,1,5.69,7.56V5.69A1.88,1.88,0,0,1,7.56,3.81V3a2,2,0,0,1,2-2h7.31a2,2,0,0,1,2,2v.84a1.88,1.88,0,0,1,1.87,1.87V7.56A1.87,1.87,0,0,1,18.81,9.44ZM9.53,2.88a.1.1,0,0,0-.1.1v.84A1.88,1.88,0,0,1,7.56,5.69V7.56H18.81V5.69a1.88,1.88,0,0,1-1.87-1.88V3a.1.1,0,0,0-.1-.1Zm14,23.44a7.5,7.5,0,1,1,7.5-7.5A7.51,7.51,0,0,1,23.5,26.31Zm0-13.12a5.62,5.62,0,1,0,5.62,5.62A5.63,5.63,0,0,0,23.5,13.19Zm2.81,6.56H20.69a.94.94,0,1,1,0-1.87h5.62a.94.94,0,1,1,0,1.87ZM23.5,22.56a.94.94,0,0,1-.94-.94V16a.94.94,0,0,1,1.87,0v5.62A.94.94,0,0,1,23.5,22.56Z"/></svg>