<svg xmlns="http://www.w3.org/2000/svg" viewBox="0 0 32 32"><path d="M30.22,6.59,19.44,4a1,1,0,0,0-.88.2A2.69,2.69,0,0,1,16,6.59a2.68,2.68,0,0,1-2.56-2.37,1,1,0,0,0-.88-.2L1.78,6.59A1,1,0,0,0,1,7.76l1.33,6.6a1,1,0,0,0,1,.81L7.17,15V27a1,1,0,0,0,1,1H23.79a1,1,0,0,0,1-1V15l3.83.16a1,1,0,0,0,1-.81L31,7.76A1,1,0,0,0,30.22,6.59Zm-9.64,8.79-2.42,1.74.92,2.82a.43.43,0,0,1-.67.48L16,18.68l-2.41,1.74a.43.43,0,0,1-.67-.48l.92-2.82-2.42-1.74a.42.42,0,0,1,.26-.77h3l.92-2.82a.44.44,0,0,1,.83,0l.92,2.82h3A.42.42,0,0,1,20.58,15.38Z"/></svg>