<svg xmlns="http://www.w3.org/2000/svg" viewBox="0 0 500 500"><path d="M444.4 135.5c0-11.7-8.2-21.5-19.1-24v-34c0-13.9-11.3-25.3-25.3-25.3H99.3c-14 0-25.3 11.4-25.3 25.3v34c-10.9 2.5-19.1 12.3-19.1 24l19 141.5-7.7 141.2v.1c0 13.6 11 24.6 24.6 24.6h321.8c13.6 0 24.6-11 24.6-24.6L425.9 277l18.6-141.2-.1-.3zM340 67.7c8.7 0 15.8 7.1 15.8 15.8s-7.1 15.8-15.8 15.8-15.8-7.1-15.8-15.8 7.1-15.8 15.8-15.8zm-180.3 0c8.7 0 15.8 7.1 15.8 15.8s-7.1 15.8-15.8 15.8-15.8-7.1-15.8-15.8 7-15.8 15.8-15.8zm252.9 371.2H90.8c-11.3 0-20.6-9.2-20.6-20.5l7.6-139.5H422l11.1 139.5c0 11.3-9.2 20.5-20.5 20.5zm9.5-164H77.6L58.9 135.4c.1-11.3 9.3-20.5 20.6-20.5h340.4c11.3 0 20.5 9.2 20.6 20.5l-18.4 139.5z"/></svg>