<svg fill="#000000" viewBox="0 0 24 24" xmlns="http://www.w3.org/2000/svg"><path d="M13.6 15.1A4.3 4.3 0 0 1 10.8 14a4.13 4.13 0 0 1 -1.1 -2.5 .86 .86 0 0 1 .6 -.7 .86 .86 0 0 1 .7 .6 2.36 2.36 0 0 0 .7 1.6 2.41 2.41 0 0 0 1.8 .7 2.87 2.87 0 0 0 1.8 -.7l3.3-3.3A2.62 2.62 0 0 0 14.9 6L12.4 8.5a.56 .56 0 0 1 -.9 0 .56 .56 0 0 1 0 -.9L14 5.1A4.77 4.77 0 0 1 16.9 4a4.3 4.3 0 0 1 2.8 1.1 3.93 3.93 0 0 1 1.1 2.8 4.11 4.11 0 0 1 -1.1 2.8L16.4 14A3.93 3.93 0 0 1 13.6 15.1"/><path d="M7.1,20a4.3,4.3,0,0,1-2.8-1.1,3.92,3.92,0,0,1,0-5.5l3.3-3.3a3.92,3.92,0,0,1,5.5,0,4.13,4.13,0,0,1,1.1,2.5,0.86,0.86,0,0,1-.6.7,0.86,0.86,0,0,1-.7-0.6,2.36,2.36,0,0,0-.7-1.6,2.66,2.66,0,0,0-3.7,0L5.2,14.4a2.62,2.62,0,0,0,3.7,3.7l2.5-2.5a0.64,0.64,0,1,1,.9.9L9.8,19A4.27,4.27,0,0,1,7.1,20Z"/></svg>