<svg xmlns="http://www.w3.org/2000/svg" viewBox="0 0 100 100"><path d="M32.165 41.73c-2.968.371-5.374 3.583-5.374 7.173s2.406 6.802 5.374 7.173c2.968.371 5.374-2.84 5.374-7.173s-2.406-7.544-5.374-7.173z"/><path d="M10.844 21.168v56.163l43.856 7.8V12.674l-43.856 8.494zm21.321 39.304c-4.787-.599-8.667-5.779-8.667-11.569s3.88-10.97 8.667-11.569c4.787-.599 8.667 4.581 8.667 11.569s-3.88 12.168-8.667 11.569zM89.281 29.73L65.187 49.707 58.6 44.398V27.842h30.681z"/><path d="M89.281 33.555L65.187 53.532 58.6 48.223v22.608h30.681z"/></svg>