<svg xmlns="http://www.w3.org/2000/svg" viewBox="0 0 32 32"><path d="M25.11,5.14H23.75V2.42a1.36,1.36,0,1,0-2.72,0V5.14H11V2.42a1.36,1.36,0,1,0-2.72,0V5.14H6.89A5.89,5.89,0,0,0,1,11v14a5.89,5.89,0,0,0,5.89,5.89H25.11A5.89,5.89,0,0,0,31,25.05V11A5.89,5.89,0,0,0,25.11,5.14Zm3.17,19.92a3.17,3.17,0,0,1-3.17,3.17H6.89a3.17,3.17,0,0,1-3.17-3.17V11A3.17,3.17,0,0,1,6.89,7.85H8.25v2a1.36,1.36,0,1,0,2.72,0v-2H21v2a1.36,1.36,0,1,0,2.72,0v-2h1.36A3.17,3.17,0,0,1,28.28,11Z"/><rect x="9.34" y="14.6" width="3.6" height="3.6" rx="1.08"/><rect x="14.2" y="14.6" width="3.6" height="3.6" rx="1.08"/><rect x="19.06" y="14.6" width="3.6" height="3.6" rx="1.08"/><rect x="9.34" y="20" width="3.6" height="3.6" rx="1.08"/><rect x="14.2" y="20" width="3.6" height="3.6" rx="1.08"/><rect x="19.06" y="20" width="3.6" height="3.6" rx="1.08"/></svg>