<svg xmlns="http://www.w3.org/2000/svg" viewBox="0 0 32 32"><path d="M17.7,13.37c-3.39-1.12-4.48-1.81-4.48-2.81s1-1.81,3.37-1.81a10.91,10.91,0,0,1,4.86,1.06,1.12,1.12,0,0,0,1.46-.53L24,7a1.11,1.11,0,0,0,0-.84,1.08,1.08,0,0,0-.57-.63,13.27,13.27,0,0,0-4.2-1.17l-.65-.08V2.1A1.11,1.11,0,0,0,17.48,1H14.86a1.1,1.1,0,0,0-1.11,1.1V4.57l-.56.15C9.55,5.64,7.38,8,7.38,11c0,3.94,3.91,5.7,7.73,6.91,3.54,1.15,4,2.15,4,3,0,1.3-1.61,2.21-3.91,2.21a12.39,12.39,0,0,1-5.57-1.32,1.05,1.05,0,0,0-.52-.13,1.19,1.19,0,0,0-.36.06,1.13,1.13,0,0,0-.65.6l-1,2.27a1.1,1.1,0,0,0,.46,1.41,14.19,14.19,0,0,0,5.25,1.52l.66.07v2.35A1.1,1.1,0,0,0,14.56,31h2.66a1.11,1.11,0,0,0,1.11-1.11V27.32l.56-.14C23.39,26,25,22.93,25,20.62,25,16.34,21.31,14.56,17.7,13.37Z"/></svg>