<svg xmlns="http://www.w3.org/2000/svg" viewBox="0 0 32 32"><path d="M19.34,13h-.5v.72a.5.5,0,0,1-1,0V13H14.15v.72a.5.5,0,0,1-1,0V13h-.5a1.16,1.16,0,0,0-1.16,1.16v5.14a1.16,1.16,0,0,0,1.16,1.16h6.68a1.16,1.16,0,0,0,1.16-1.16V14.17A1.16,1.16,0,0,0,19.34,13ZM16,18.89a2.85,2.85,0,0,1-2.65-1.81,2.85,2.85,0,0,1,5.31,0A2.85,2.85,0,0,1,16,18.89Z"/><path d="M16,15.87a1.21,1.21,0,1,0,1.21,1.21A1.21,1.21,0,0,0,16,15.87Zm0,1.93a.72.72,0,1,1,.72-.72A.72.72,0,0,1,16,17.8Z"/><path d="M16,.9A15.1,15.1,0,1,0,31.1,16,15.1,15.1,0,0,0,16,.9Zm5.5,18.41a2.16,2.16,0,0,1-2.16,2.16H12.66a2.16,2.16,0,0,1-2.16-2.16V14.17A2.16,2.16,0,0,1,12.66,12h.5V11a.5.5,0,0,1,1,0v1h3.69V11a.5.5,0,0,1,1,0v1h.5a2.16,2.16,0,0,1,2.16,2.16Z"/></svg>