<svg xmlns="http://www.w3.org/2000/svg" viewBox="0 0 32 32"><path d="M1.48,3.88a1.27,1.27,0,0,1,1.82,0L6.38,7,9.47,3.88a1.28,1.28,0,0,1,1.82,1.81L8.2,8.77l3.09,3.08a1.28,1.28,0,0,1-1.82,1.81L6.38,10.59,3.3,13.67a1.28,1.28,0,0,1-1.82-1.81L4.57,8.77,1.48,5.69A1.34,1.34,0,0,1,1.48,3.88Z"/><path d="M11.47,20.68l-4.69,7a1.72,1.72,0,0,1-1.32.78H5.32A1.76,1.76,0,0,1,4,27.95L1.47,25.23A1.76,1.76,0,0,1,4,22.82l1,1.11,3.46-5.19a1.76,1.76,0,0,1,2.93,2Z"/><path d="M28.88,25.33H17a2.11,2.11,0,1,1,0-4.22h11.9a2.11,2.11,0,1,1,0,4.22Z"/><path d="M28.88,10.88H17a2.11,2.11,0,1,1,0-4.22h11.9a2.11,2.11,0,1,1,0,4.22Z"/></svg>