<svg xmlns="http://www.w3.org/2000/svg" viewBox="0 0 50 40"><path d="M31.24,39.65H19.18a.4.4,0,0,1-.39-.5l1.56-6.51H1.4a.4.4,0,0,1-.4-.4V.75a.4.4,0,0,1,.4-.4H48.6a.4.4,0,0,1,.4.4V32.24a.4.4,0,0,1-.4.4H29.67l1.95,6.49a.4.4,0,0,1-.39.52Zm-11.54-.81h11l-1.95-6.49a.4.4,0,0,1,.39-.52H48.19V1.16H1.81V31.83H20.87a.4.4,0,0,1,.39.5Z"/><path d="M38.1,32.64H20.87a.4.4,0,1,1,0-.81H38.1a.4.4,0,1,1,0,.81Z"/><path d="M48.6,3.7H1.5a.4.4,0,0,1,0-.81H48.6a.4.4,0,1,1,0,.81Z"/><path d="M48.6,26.4H1.5a.4.4,0,0,1,0-.81H48.6a.4.4,0,0,1,0,.81Z"/></svg>