<svg viewBox="0 0 752 471" xmlns="http://www.w3.org/2000/svg"><g fill="none" fill-rule="evenodd"><rect fill="#2557d6" x="1" width="750" height="471" rx="40"/><path d="m1 221.19h36.02l8.123-19.51h18.18l8.101 19.51h70.88v-14.915l6.327 14.98h36.796l6.327-15.202v15.14h176.15l-.082-32.03h3.408c2.386.083 3.083.302 3.083 4.226v27.8h91.11v-7.455c7.349 3.92 18.779 7.455 33.819 7.455h38.33l8.203-19.51h18.18l8.02 19.51h73.86v-18.532l11.186 18.532h59.19v-122.51h-58.58v14.468l-8.202-14.468h-60.11v14.468l-7.532-14.468h-81.19c-13.59 0-25.536 1.889-35.19 7.153v-7.153h-56.03v7.153c-6.14-5.426-14.508-7.153-23.812-7.153h-204.69l-13.734 31.641-14.1-31.641h-64.47v14.468l-7.083-14.468h-54.983l-25.534 58.25v64.26h.003m227.4-17.67h-21.614l-.08-68.794-30.573 68.793h-18.512l-30.652-68.854v68.854h-42.884l-8.101-19.592h-43.9l-8.183 19.592h-22.9l37.756-87.84h31.33l35.859 83.16v-83.16h34.412l27.593 59.59 25.347-59.59h35.1v87.84h.003zm-159.62-37.823l-14.43-35.02-14.35 35.02h28.78m245.64 37.821h-70.43v-87.84h70.43v18.291h-49.35v15.833h48.17v18h-48.17v17.542h49.35v18.17m99.26-64.18c0 14-9.386 21.24-14.856 23.412 4.613 1.748 8.553 4.838 10.43 7.397 2.976 4.369 3.49 8.271 3.49 16.12v17.255h-21.266l-.08-11.08c0-5.285.508-12.886-3.328-17.11-3.081-3.09-7.777-3.76-15.368-3.76h-22.633v31.95h-21.08v-87.84h48.5c10.775 0 18.714.283 25.53 4.207 6.67 3.924 10.67 9.652 10.67 19.45m-26.652 13.04c-2.898 1.752-6.324 1.81-10.43 1.81h-25.613v-19.51h25.962c3.674 0 7.508.164 9.998 1.584 2.735 1.28 4.427 4 4.427 7.765 0 3.84-1.61 6.929-4.344 8.351m60.47 51.14h-21.513v-87.84h21.513v87.84m249.74 0h-29.879l-39.964-65.927v65.927h-42.94l-8.204-19.592h-43.799l-7.96 19.592h-24.673c-10.248 0-23.22-2.257-30.572-9.715-7.41-7.458-11.265-17.56-11.265-33.533 0-13.03 2.304-24.936 11.366-34.35 6.816-7.01 17.49-10.242 32.02-10.242h20.412v18.821h-19.984c-7.694 0-12.04 1.14-16.224 5.203-3.594 3.699-6.06 10.69-6.06 19.897 0 9.41 1.878 16.196 5.797 20.628 3.245 3.476 9.144 4.53 14.694 4.53h9.469l29.716-69.08h31.592l35.696 83.08v-83.08h32.1l37.06 61.17v-61.17h21.596v87.83zm-128.16-37.82l-14.591-35.02-14.51 35.02h29.1m181.89 178.07c-5.121 7.458-15.1 11.239-28.611 11.239h-40.718v-18.84h40.553c4.02 0 6.837-.527 8.532-2.175a7.71 7.71 0 0 0 2.493 -5.73c0-2.56-1.024-4.592-2.575-5.81-1.53-1.341-3.757-1.95-7.429-1.95-19.797-.67-44.495.609-44.495-27.19 0-12.743 8.125-26.16 30.25-26.16h41.998v-17.48h-39.02c-11.776 0-20.33 2.808-26.388 7.174v-7.175h-57.716c-9.23 0-20.06 2.279-25.19 7.175v-7.175h-103.07v7.175c-8.203-5.892-22.04-7.175-28.431-7.175h-67.983v7.175c-6.49-6.258-20.92-7.175-29.716-7.175h-76.08l-17.41 18.763-16.307-18.763h-113.66v122.59h111.52l17.94-19.06 16.9 19.06 68.74.061v-28.838h6.757c9.12.14 19.878-.226 29.368-4.31v33.08h56.697v-31.952h2.735c3.49 0 3.834.143 3.834 3.616v28.333h172.23c10.935 0 22.365-2.787 28.695-7.845v7.845h54.632c11.369 0 22.471-1.587 30.918-5.651v-22.838m-341.5-47.15c0 24.406-18.286 29.445-36.716 29.445h-26.307v29.469h-40.98l-25.962-29.08-26.981 29.08h-83.52v-87.86h84.8l25.941 28.799 26.819-28.799h67.37c16.732 0 35.532 4.613 35.532 28.945m-167.62 40.43h-51.839v-17.481h46.29v-17.926h-46.29v-15.973h52.86l23.06 25.604-24.08 25.776m83.53 10.06l-32.37-35.788 32.37-34.651v70.44m47.873-39.07h-27.25v-22.374h27.492c7.612 0 12.896 3.09 12.896 10.773 0 7.598-5.04 11.601-13.14 11.601zm142.74-40.37h70.37v18.17h-49.37v15.973h48.17v17.925h-48.17v17.481l49.37.08v18.23h-70.37v-87.86m-27.05 47.03c4.693 1.724 8.53 4.816 10.329 7.375 2.977 4.29 3.408 8.293 3.493 16.04v17.417h-21.17v-10.992c0-5.286.511-13.11-3.408-17.198-3.08-3.147-7.777-3.9-15.468-3.9h-22.533v32.09h-21.19v-87.86h48.678c10.674 0 18.448.47 25.369 4.146 6.654 4 10.839 9.488 10.839 19.51-.003 14.02-9.395 21.18-14.945 23.373zm-11.917-11.11c-2.82 1.667-6.308 1.81-10.41 1.81h-25.614v-19.733h25.962c3.754 0 7.51.08 10.06 1.587 2.732 1.423 4.366 4.144 4.366 7.903 0 3.76-1.634 6.788-4.366 8.433m190.34 5.597c4.106 4.23 6.306 9.572 6.306 18.614 0 18.9-11.858 27.723-33.12 27.723h-41.06v-18.84h40.9c4 0 6.836-.527 8.613-2.175 1.45-1.359 2.49-3.333 2.49-5.73 0-2.56-1.125-4.592-2.573-5.81-1.612-1.34-3.836-1.95-7.508-1.95-19.717-.67-44.41.61-44.41-27.19 0-12.744 8.04-26.16 30.14-26.16h42.27v18.7h-38.677c-3.834 0-6.327.143-8.447 1.587-2.31 1.422-3.166 3.534-3.166 6.32 0 3.315 1.96 5.57 4.613 6.545 2.224.77 4.613.996 8.205.996l11.35.305c11.446.278 19.303 2.249 24.08 7.07m83.66-23.52h-38.427c-3.836 0-6.385.143-8.532 1.587-2.224 1.423-3.081 3.534-3.081 6.322 0 3.314 1.878 5.569 4.61 6.544 2.225.77 4.614.996 8.126.996l11.427.304c11.531.284 19.228 2.258 23.921 7.07.855.67 1.368 1.422 1.956 2.175v-25" fill="#fff"/></g></svg>