<svg viewBox="0 0 750 471" xmlns="http://www.w3.org/2000/svg"><g fill="none" fill-rule="evenodd"><rect fill="#0079be" width="750" height="471" rx="40"/><path d="m584.93 237.95c0-99.42-82.981-168.13-173.89-168.1h-78.24c-92-.033-167.73 68.71-167.73 168.1 0 90.93 75.73 165.64 167.73 165.2h78.24c90.91.436 173.89-74.29 173.89-165.2" fill="#fff"/><path d="m333.28 83.93c-84.07.027-152.19 68.31-152.21 152.58.02 84.26 68.14 152.53 152.21 152.56 84.09-.027 152.23-68.3 152.24-152.56-.012-84.27-68.15-152.55-152.24-152.58" fill="#0079be"/><path d="m237.07 236.1c.08-41.18 25.746-76.3 61.94-90.25v180.48c-36.19-13.947-61.861-49.04-61.94-90.23m131 90.28v-180.53c36.21 13.92 61.914 49.06 61.98 90.26-.066 41.21-25.773 76.32-61.98 90.27" fill="#fff"/></g></svg>