<svg viewBox="0 0 750 471" xmlns="http://www.w3.org/2000/svg"><g fill="none" fill-rule="evenodd"><rect fill="#0e4595" width="750" height="471" rx="40"/><path d="m278.2 334.23l33.36-195.76h53.36l-33.385 195.76h-53.34m246.11-191.54c-10.572-3.966-27.14-8.222-47.823-8.222-52.725 0-89.87 26.55-90.18 64.6-.298 28.13 26.513 43.822 46.753 53.19 20.77 9.594 27.752 15.714 27.654 24.283-.132 13.12-16.587 19.12-31.923 19.12-21.357 0-32.703-2.966-50.23-10.276l-6.876-3.111-7.49 43.824c12.464 5.464 35.51 10.198 59.44 10.443 56.09 0 92.5-26.25 92.92-66.882.2-22.268-14.02-39.22-44.8-53.19-18.65-9.06-30.07-15.1-29.951-24.268 0-8.137 9.667-16.839 30.556-16.839 17.45-.27 30.09 3.535 39.937 7.5l4.781 2.26 7.234-42.43m137.31-4.222h-41.23c-12.774 0-22.332 3.487-27.942 16.234l-79.25 179.4h56.03s9.161-24.12 11.233-29.418c6.124 0 60.55.084 68.34.084 1.596 6.853 6.491 29.334 6.491 29.334h49.51l-43.19-195.64zm-65.42 126.41c4.413-11.279 21.26-54.723 21.26-54.723-.316.522 4.38-11.334 7.08-18.684l3.606 16.879s10.217 46.728 12.352 56.53h-44.29m-363.29-126.41l-52.24 133.5-5.567-27.13c-9.725-31.27-40.03-65.16-73.898-82.12l47.766 171.2 56.46-.065 84-195.39h-56.52" fill="#fff"/><path d="m131.92 138.47h-86.04l-.681 4.073c66.938 16.204 111.23 55.36 129.62 102.41l-18.71-89.96c-3.23-12.395-12.597-16.09-24.19-16.526" fill="#f2ae14"/></g></svg>