<svg xmlns="http://www.w3.org/2000/svg" viewBox="0 0 780 501"><g fill="none" fill-rule="evenodd"><path fill="#4d4d4d" d="m54.992 0c-30.365 0-54.992 24.63-54.992 55v390.99c0 30.38 24.619 55 54.992 55h670.02c30.365 0 54.992-24.63 54.992-55v-390.99c0-30.38-24.619-55-54.992-55h-670.02"/><path fill="#fff" d="m327.15 161.89c8.837 0 16.248 1.784 25.27 6.09v22.751c-8.544-7.863-15.955-11.154-25.756-11.154-19.264 0-34.414 15.02-34.414 34.05 0 20.07 14.681 34.2 35.37 34.2 9.312 0 16.586-3.12 24.8-10.857v22.763c-9.341 4.14-16.911 5.776-25.756 5.776-31.28 0-55.58-22.596-55.58-51.737 0-28.826 24.951-51.878 56.07-51.878m-97.11.627c11.546 0 22.11 3.72 30.943 10.994l-10.748 13.248c-5.35-5.646-10.41-8.03-16.564-8.03-8.853 0-15.3 4.745-15.3 10.989 0 5.354 3.619 8.188 15.944 12.482 23.365 8.04 30.29 15.176 30.29 30.926 0 19.19-14.976 32.553-36.32 32.553-15.63 0-26.994-5.795-36.458-18.872l13.268-12.03c4.73 8.61 12.622 13.222 22.42 13.222 9.163 0 15.947-5.952 15.947-13.984 0-4.164-2.055-7.734-6.158-10.258-2.066-1.195-6.158-2.977-14.2-5.647-19.291-6.538-25.91-13.527-25.91-27.19 0-16.225 14.214-28.41 32.846-28.41m234.72 1.728h22.437l28.08 66.59 28.446-66.59h22.267l-45.49 101.69h-11.05l-44.687-101.69m-397.35.152h30.15c33.31 0 56.53 20.382 56.53 49.641 0 14.59-7.104 28.696-19.12 38.06-10.11 7.901-21.626 11.445-37.574 11.445h-29.992v-99.14m96.13 0h20.54v99.14h-20.54v-99.14m411.73 0h58.25v16.8h-37.725v22h36.34v16.791h-36.34v26.762h37.726v16.785h-58.25v-99.14zm71.858 0h30.455c23.69 0 37.26 10.71 37.26 29.27 0 15.18-8.514 25.14-23.986 28.1l33.15 41.766h-25.26l-28.429-39.828h-2.678v39.828h-20.515v-99.14m20.515 15.616v30.03h6c13.12 0 20.07-5.362 20.07-15.328 0-9.648-6.954-14.697-19.745-14.697h-6.326m-579.72 1.183v65.56h5.512c13.273 0 21.656-2.394 28.11-7.88 7.103-5.955 11.376-15.465 11.376-24.98 0-9.499-4.273-18.725-11.376-24.681-6.785-5.78-14.837-8.02-28.11-8.02h-5.512"/><path fill="#f47216" d="m415.13 161.21c30.941 0 56.02 23.58 56.02 52.709v.033c0 29.13-25.08 52.742-56.02 52.742s-56.02-23.613-56.02-52.742v-.033c0-29.13 25.08-52.71 56.02-52.71m364.85 127.15c-26.05 18.33-221.08 149.34-558.75 212.62h503.76c30.365 0 54.992-24.63 54.992-55v-157.62"/></g></svg>