<svg xmlns="http://www.w3.org/2000/svg" viewBox="0 0 750 471"><rect fill="#000c9d" width="750" height="471" rx="40"/><path fill="#9d9400" d="m48.71 153.58h110.32v99.68h-110.32z"/><g fill="#fff"><path d="m78.1 310.37v-3.795h-5.117v-11.27h-4.198l-.402 11.27h-11.443l10.58-25.07-3.967-1.725-11.673 27.14v3.45h16.445v9.66h4.658v-9.66h5.117m19.586-30.59c-4.03 0-7.878 1.38-11.213 4.6l2.588 2.933c2.645-2.473 5-3.68 8.395-3.68 4.197 0 7.532 2.357 7.532 6.727 0 4.773-3.737 6.958-7.532 6.958h-2.358l-.575 3.795h3.335c4.658 0 8.223 1.84 8.223 7.532 0 4.945-3.278 8.108-8.855 8.108-3.22 0-6.555-1.323-8.798-3.968l-3.22 2.645c2.99 3.68 7.705 5.233 12.133 5.233 8.165 0 13.742-5.175 13.742-12.02 0-6.152-4.37-9.372-9.03-9.717 4.197-.805 7.762-4.428 7.762-9.2 0-5.405-4.715-9.948-12.13-9.948m34.477 0c-5.347 0-8.912 1.898-12.08 5.693l3.335 2.53c2.53-2.933 4.658-4.198 8.568-4.198 4.427 0 7.07 2.76 7.07 7.188 0 6.497-3.22 10.81-18.17 25.13v3.91h23.518l.575-4.082h-18.63c13.05-11.903 17.71-17.825 17.71-25.07 0-6.325-4.428-11.1-11.903-11.1m48.738 36.34h-8.28v-35.65h-4.198l-11.73 7.245 2.07 3.393 9.09-5.463v30.475h-9.775v3.91h22.828v-3.91m69.59-5.75v-3.795h-5.117v-11.27h-4.198l-.402 11.27h-11.443l10.58-25.07-3.967-1.725-11.673 27.14v3.45h16.445v9.66h4.658v-9.66h5.117m19.585-30.59c-4.02 0-7.877 1.38-11.212 4.6l2.587 2.933c2.645-2.473 5-3.68 8.395-3.68 4.198 0 7.533 2.357 7.533 6.727 0 4.773-3.738 6.958-7.533 6.958h-2.357l-.575 3.795h3.335c4.657 0 8.222 1.84 8.222 7.532 0 4.945-3.277 8.108-8.855 8.108-3.22 0-6.555-1.323-8.797-3.968l-3.22 2.645c2.99 3.68 7.705 5.233 12.13 5.233 8.165 0 13.743-5.175 13.743-12.02 0-6.152-4.37-9.372-9.03-9.717 4.198-.805 7.763-4.428 7.763-9.2 0-5.405-4.715-9.948-12.133-9.948m34.478 0c-5.348 0-8.913 1.898-12.07 5.693l3.335 2.53c2.53-2.933 4.657-4.198 8.567-4.198 4.428 0 7.07 2.76 7.07 7.188 0 6.497-3.22 10.81-18.17 25.13v3.91h23.517l.575-4.082h-18.63c13.05-11.903 17.71-17.825 17.71-25.07 0-6.325-4.427-11.1-11.902-11.1m48.737 36.34h-8.28v-35.65h-4.197l-11.73 7.245 2.07 3.393 9.08-5.463v30.475h-9.775v3.91h22.827v-3.91m69.59-5.75v-3.795h-5.118v-11.27h-4.197l-.403 11.27h-11.442l10.58-25.07-3.968-1.725-11.672 27.14v3.45h16.445v9.66h4.657v-9.66h5.118m19.585-30.59c-4.02 0-7.878 1.38-11.213 4.6l2.588 2.933c2.645-2.473 5-3.68 8.395-3.68 4.197 0 7.532 2.357 7.532 6.727 0 4.773-3.737 6.958-7.532 6.958h-2.358l-.575 3.795h3.335c4.658 0 8.223 1.84 8.223 7.532 0 4.945-3.278 8.108-8.855 8.108-3.22 0-6.555-1.323-8.798-3.968l-3.22 2.645c2.99 3.68 7.705 5.233 12.133 5.233 8.165 0 13.742-5.175 13.742-12.02 0-6.152-4.37-9.372-9.03-9.717 4.197-.805 7.762-4.428 7.762-9.2 0-5.405-4.715-9.948-12.13-9.948m34.477 0c-5.347 0-8.912 1.898-12.07 5.693l3.335 2.53c2.53-2.933 4.658-4.198 8.568-4.198 4.427 0 7.07 2.76 7.07 7.188 0 6.497-3.22 10.81-18.17 25.13v3.91h23.518l.575-4.082h-18.63c13.05-11.903 17.71-17.825 17.71-25.07 0-6.325-4.428-11.1-11.903-11.1m48.738 36.34h-8.28v-35.65h-4.198l-11.73 7.245 2.07 3.393 9.08-5.463v30.475h-9.775v3.91h22.828v-3.91m69.59-5.75v-3.795h-5.118v-11.27h-4.197l-.402 11.27h-11.442l10.58-25.07-3.968-1.725-11.672 27.14v3.45h16.445v9.66h4.658v-9.66h5.118zm19.584-30.59c-4.02 0-7.877 1.38-11.212 4.6l2.588 2.933c2.645-2.473 5-3.68 8.395-3.68 4.198 0 7.533 2.357 7.533 6.727 0 4.773-3.737 6.958-7.532 6.958h-2.357l-.575 3.795h3.335c4.658 0 8.223 1.84 8.223 7.532 0 4.945-3.278 8.108-8.855 8.108-3.22 0-6.554-1.323-8.797-3.968l-3.22 2.645c2.99 3.68 7.705 5.233 12.133 5.233 8.165 0 13.742-5.175 13.742-12.02 0-6.152-4.37-9.372-9.03-9.717 4.198-.805 7.763-4.428 7.763-9.2 0-5.405-4.715-9.948-12.13-9.948zm34.478 0c-5.347 0-8.912 1.898-12.08 5.693l3.335 2.53c2.53-2.933 4.658-4.198 8.568-4.198 4.427 0 7.07 2.76 7.07 7.188 0 6.497-3.22 10.81-18.17 25.13v3.91h23.518l.575-4.082h-18.63c13.05-11.903 17.71-17.825 17.71-25.07 0-6.325-4.427-11.1-11.902-11.1zm48.738 36.34h-8.28v-35.65h-4.198l-11.73 7.245 2.07 3.393 9.09-5.463v30.475h-9.775v3.91h22.828v-3.91"/></g><g fill="#fff" fill-opacity=".784"><path d="m55.607 415.42h6.445v-22.245l-7.01 1.406v-3.593l6.973-1.406h3.945v25.84h6.446v3.32h-16.797v-3.32zm25.468 0h6.446v-22.245l-7.01 1.406v-3.593l6.972-1.406h3.945v25.84h6.445v3.32h-16.798v-3.32zm40.918 0h13.77v3.32h-18.516v-3.32q2.246-2.323 6.114-6.23 3.887-3.925 4.883-5.058 1.895-2.13 2.637-3.594.762-1.484.762-2.91 0-2.324-1.64-3.79-1.622-1.464-4.24-1.464-1.855 0-3.925.645-2.05.643-4.394 1.952v-3.985q2.382-.957 4.453-1.445 2.07-.488 3.79-.488 4.53 0 7.225 2.265 2.697 2.265 2.697 6.05 0 1.797-.684 3.418-.664 1.602-2.44 3.79-.49.565-3.107 3.28-2.617 2.696-7.383 7.56zm34.02-12.4q2.832.604 4.414 2.518 1.602 1.914 1.602 4.727 0 4.316-2.968 6.68-2.97 2.363-8.438 2.363-1.836 0-3.79-.372-1.932-.35-4-1.074v-3.808q1.64.957 3.594 1.445 1.953.487 4.082.487 3.71 0 5.644-1.465 1.953-1.464 1.953-4.257 0-2.58-1.817-4.02-1.797-1.464-5.02-1.464h-3.398v-3.242h3.555q2.91 0 4.453-1.152 1.543-1.172 1.543-3.36 0-2.246-1.6-3.437-1.584-1.21-4.552-1.21-1.62 0-3.476.35-1.855.352-4.082 1.094v-3.516q2.246-.625 4.2-.938 1.972-.312 3.71-.312 4.492 0 7.11 2.05 2.617 2.032 2.617 5.508 0 2.422-1.388 4.102-1.387 1.66-3.945 2.305zm26.289-13.44h15.488v3.32h-11.874v7.15q.86-.293 1.718-.43.86-.156 1.72-.156 4.88 0 7.733 2.676 2.853 2.675 2.853 7.246 0 4.707-2.93 7.324-2.93 2.598-8.262 2.598-1.835 0-3.75-.313-1.893-.312-3.925-.937v-3.965q1.758.957 3.633 1.426 1.875.467 3.965.467 3.38 0 5.352-1.777 1.972-1.777 1.972-4.824 0-3.047-1.972-4.825-1.973-1.776-5.352-1.776-1.582 0-3.164.352-1.563.35-3.204 1.093v-14.65zm33.867 15.314q-2.812 0-4.434 1.503-1.602 1.504-1.602 4.14 0 2.638 1.6 4.142 1.623 1.503 4.435 1.503 2.813 0 4.434-1.504 1.62-1.525 1.62-4.142 0-2.637-1.62-4.14-1.602-1.504-4.434-1.504zm-3.945-1.68q-2.54-.625-3.965-2.363-1.406-1.738-1.406-4.238 0-3.496 2.48-5.527 2.5-2.03 6.836-2.03 4.356 0 6.836 2.03 2.48 2.03 2.48 5.527 0 2.5-1.426 4.24-1.407 1.737-3.926 2.362 2.85.664 4.434 2.597 1.6 1.935 1.6 4.728 0 4.238-2.597 6.504-2.578 2.266-7.402 2.266t-7.422-2.266q-2.577-2.266-2.577-6.504 0-2.793 1.602-4.727 1.6-1.932 4.453-2.596zm-1.446-6.23q0 2.265 1.407 3.535 1.424 1.268 3.983 1.268 2.54 0 3.965-1.27 1.445-1.27 1.445-3.535t-1.445-3.535q-1.426-1.27-3.965-1.27-2.56 0-3.984 1.27-1.408 1.27-1.408 3.535z"/><path d="m308.84 414.45h6.445v-22.246l-7.01 1.406v-3.593l6.972-1.407h3.946v25.84h6.445v3.32h-16.797v-3.32m36.737-12.403q2.832.606 4.415 2.52 1.6 1.914 1.6 4.727 0 4.316-2.97 6.68-2.967 2.363-8.436 2.363-1.836 0-3.79-.37-1.933-.353-4-1.075v-3.81q1.64.958 3.595 1.446 1.953.49 4.082.49 3.71 0 5.644-1.465 1.954-1.465 1.954-4.258 0-2.578-1.816-4.02-1.797-1.464-5.02-1.464h-3.398v-3.244h3.555q2.91 0 4.453-1.152 1.543-1.172 1.543-3.36 0-2.245-1.6-3.437-1.583-1.21-4.552-1.21-1.62 0-3.476.35-1.856.352-4.082 1.095v-3.516q2.246-.625 4.2-.938 1.972-.312 3.71-.312 4.492 0 7.11 2.05 2.616 2.032 2.616 5.51 0 2.42-1.386 4.1-1.387 1.66-3.946 2.305zm16.916 12.403h13.768v3.32h-18.516v-3.32q2.247-2.324 6.114-6.23 3.886-3.926 4.883-5.06 1.893-2.128 2.635-3.593.762-1.484.762-2.91 0-2.324-1.64-3.79-1.622-1.464-4.24-1.464-1.854 0-3.925.645-2.05.645-4.394 1.954v-3.984q2.383-.957 4.453-1.446 2.07-.488 3.79-.488 4.53 0 7.226 2.266 2.696 2.265 2.696 6.05 0 1.797-.684 3.418-.664 1.602-2.44 3.79-.49.566-3.107 3.28-2.616 2.696-7.38 7.56zm22.752 0h6.446v-22.246l-7.01 1.406v-3.593l6.973-1.407h3.944v25.84h6.445v3.32h-16.798v-3.32zm49.47-12.403q2.832.606 4.414 2.52 1.6 1.914 1.6 4.727 0 4.316-2.968 6.68-2.97 2.363-8.438 2.363-1.835 0-3.79-.37-1.932-.353-4-1.075v-3.81q1.642.958 3.595 1.446 1.953.49 4.082.49 3.71 0 5.645-1.465 1.953-1.465 1.953-4.258 0-2.578-1.816-4.02-1.798-1.464-5.02-1.464h-3.4v-3.244h3.555q2.91 0 4.453-1.152 1.543-1.172 1.543-3.36 0-2.245-1.6-3.437-1.582-1.21-4.55-1.21-1.622 0-3.478.35-1.855.352-4.082 1.095v-3.516q2.246-.625 4.2-.938 1.972-.312 3.71-.312 4.493 0 7.11 2.05 2.617 2.032 2.617 5.51 0 2.42-1.387 4.1-1.386 1.66-3.945 2.305zm24.355-10l-9.96 15.567h9.96v-15.567m-1.035-3.437h4.96v19h4.16v3.28h-4.16v6.876h-3.924v-6.875h-13.164v-3.808l12.13-18.477zm15.705 0h15.487v3.32h-11.875v7.15q.86-.294 1.72-.43.858-.157 1.717-.157 4.882 0 7.734 2.676 2.85 2.676 2.85 7.246 0 4.707-2.928 7.324-2.93 2.598-8.262 2.598-1.836 0-3.75-.313-1.895-.312-3.926-.937v-3.965q1.758.957 3.633 1.426 1.876.47 3.966.47 3.38 0 5.35-1.778 1.974-1.777 1.974-4.824 0-3.047-1.973-4.824-1.972-1.778-5.35-1.778-1.583 0-3.165.352-1.563.352-3.203 1.094v-14.65m25.468 0h15.49v3.32h-11.877v7.15q.86-.294 1.72-.43.86-.157 1.718-.157 4.883 0 7.734 2.676 2.852 2.676 2.852 7.246 0 4.707-2.93 7.324-2.93 2.598-8.26 2.598-1.837 0-3.75-.313-1.896-.312-3.927-.937v-3.965q1.758.957 3.633 1.426 1.875.47 3.964.47 3.38 0 5.352-1.778 1.973-1.777 1.973-4.824 0-3.047-1.974-4.824-1.973-1.778-5.352-1.778-1.582 0-3.164.352-1.562.352-3.203 1.094v-14.65"/></g></svg>