<svg xmlns="http://www.w3.org/2000/svg" clip-rule="evenodd" fill-rule="evenodd" stroke-linecap="round" stroke-linejoin="round" stroke-miterlimit="1" viewBox="0 0 32 32"><path fill="none" d="M0 0h32v32H0z"/><path d="M27.98 2.99a1 1 0 0 0-.111.01h-7.87a1 1 0 1 0 0 2h5.586L13.292 17.293a1 1 0 1 0 1.415 1.414L27 6.414V12a1 1 0 1 0 2 0V4.127a1 1 0 0 0-1.02-1.137z" clip-rule="nonzero" color="#000" fill-rule="nonzero" solid-color="#000000" style="font-feature-settings:normal;font-variant-alternates:normal;font-variant-caps:normal;font-variant-ligatures:normal;font-variant-numeric:normal;font-variant-position:normal;isolation:auto;mix-blend-mode:normal;shape-padding:0;text-decoration-color:#000;text-decoration-line:none;text-decoration-style:solid;text-indent:0;text-orientation:mixed;text-transform:none" white-space="normal"/><path d="M14 7c-2.496 0-4.382-.004-5.885.166-1.503.17-2.706.527-3.566 1.389s-1.214 2.062-1.383 3.564C2.997 13.621 3 15.507 3 18c0 2.494-.002 4.38.17 5.883.172 1.503.534 2.704 1.396 3.564.863.86 2.064 1.218 3.565 1.387S11.514 29 14 29c2.486 0 4.368.001 5.87-.17 1.5-.17 2.703-.53 3.565-1.39s1.221-2.063 1.393-3.565S25 20.49 25 18a1 1 0 1 0-2 0c0 2.487-.009 4.343-.158 5.649-.15 1.306-.425 1.982-.82 2.377-.396.394-1.072.67-2.378.818S16.484 27 14 27c-2.485 0-4.339-.007-5.645-.154-1.306-.148-1.982-.421-2.377-.815s-.67-1.07-.82-2.377S5 20.492 5 18s.005-4.349.152-5.656c.147-1.308.421-1.983.813-2.375.392-.392 1.067-.667 2.375-.815C9.648 9.007 11.505 9 14 9a1 1 0 1 0 0-2z" clip-rule="nonzero" color="#000" fill-rule="nonzero" solid-color="#000000" style="font-feature-settings:normal;font-variant-alternates:normal;font-variant-caps:normal;font-variant-ligatures:normal;font-variant-numeric:normal;font-variant-position:normal;isolation:auto;mix-blend-mode:normal;shape-padding:0;text-decoration-color:#000;text-decoration-line:none;text-decoration-style:solid;text-indent:0;text-orientation:mixed;text-transform:none" white-space="normal"/></svg>