<svg xmlns="http://www.w3.org/2000/svg" width="38" height="38"><g fill="none" fill-rule="evenodd"><circle cx="19" cy="19" r="19" fill="#FF7D03"/><circle cx="19" cy="19" r="19" fill="#02B9CF"/><path d="M26.124 22.954a.374.374 0 0 0 .374-.374v-2.145a.374.374 0 0 0-.374-.374H11.876a.374.374 0 0 0-.374.374v2.145c0 .206.168.374.374.374h14.248zm-2.302-1.961a.756.756 0 0 1 1.028 0 .745.745 0 0 1 .212.514.727.727 0 1 1-1.24-.514zm-9.644 1.028a.727.727 0 0 1-1.24-.514c0-.192.078-.378.212-.511a.753.753 0 0 1 1.028 0 .727.727 0 0 1 0 1.025zm11.946-9.508H11.876a.374.374 0 0 0-.374.374v2.144c0 .206.168.374.374.374h14.248a.374.374 0 0 0 .374-.374v-2.144a.374.374 0 0 0-.374-.374zm-3.954 1.96a.732.732 0 0 1-1.027 0 .727.727 0 0 1 0-1.028.756.756 0 0 1 1.027 0 .745.745 0 0 1 .212.513.74.74 0 0 1-.212.514zm2.68 0a.74.74 0 0 1-.514.211.722.722 0 0 1-.726-.726c0-.191.076-.377.212-.513a.756.756 0 0 1 1.028 0 .74.74 0 0 1 .212.513.74.74 0 0 1-.212.514z"/><path fill="#FFF" fill-rule="nonzero" d="M27.95 12.887a1.828 1.828 0 0 0-1.826-1.826H11.876a1.828 1.828 0 0 0-1.825 1.826v2.144c0 1.007.819 1.826 1.825 1.826h14.248a1.828 1.828 0 0 0 1.825-1.826v-2.144zm-1.452 2.144a.374.374 0 0 1-.374.374H11.876a.374.374 0 0 1-.374-.374v-2.144c0-.207.168-.374.374-.374h14.248c.206 0 .374.167.374.374v2.144z"/><path fill="#FFF" fill-rule="nonzero" d="M21.143 13.445a.727.727 0 0 0 1.027 1.027.74.74 0 0 0 .212-.514.745.745 0 0 0-.212-.513.756.756 0 0 0-1.027 0zm2.68 0a.727.727 0 0 0 1.027 1.027.74.74 0 0 0 .212-.514.74.74 0 0 0-.212-.513.756.756 0 0 0-1.028 0zm2.3 10.96a1.828 1.828 0 0 0 1.826-1.825v-2.145a1.828 1.828 0 0 0-1.825-1.825H11.876a1.828 1.828 0 0 0-1.825 1.825v2.145c0 1.006.819 1.825 1.825 1.825h6.398v1.921h-7.497a.726.726 0 1 0 0 1.452h16.446a.726.726 0 1 0 0-1.452h-7.497v-1.92h6.398zm-14.62-1.825v-2.145c0-.206.167-.374.373-.374h14.248c.206 0 .374.168.374.374v2.145a.374.374 0 0 1-.374.374H11.876a.374.374 0 0 1-.374-.374z"/><path fill="#FFF" fill-rule="nonzero" d="M24.336 22.233a.727.727 0 0 0 .726-.726.745.745 0 0 0-.212-.514.756.756 0 0 0-1.028 0 .727.727 0 0 0 .514 1.24zM13.15 20.996a.728.728 0 0 0 0 1.025.732.732 0 0 0 1.028 0 .727.727 0 0 0 0-1.025.753.753 0 0 0-1.028 0z"/></g></svg>