<svg width="56" height="56" xmlns="http://www.w3.org/2000/svg" xmlns:xlink="http://www.w3.org/1999/xlink"><defs><path d="M16.73.235C7.529.235 0 7.763 0 16.965V39.27C0 48.472 7.529 56 16.73 56h22.306c9.201 0 16.73-7.528 16.73-16.73V16.964c0-9.201-7.529-16.73-16.73-16.73H16.73z" id="a"/><linearGradient x1="50%" y1="100%" x2="50%" y2="0%" id="b"><stop stop-color="#001DFF" offset="0%"/><stop stop-color="#0060FF" offset="100%"/></linearGradient></defs><g fill="none" fill-rule="evenodd"><mask id="c" fill="#fff"><use xlink:href="#a"/></mask><path d="M16.73.235C7.529.235 0 7.763 0 16.965V39.27C0 48.472 7.529 56 16.73 56h22.306c9.201 0 16.73-7.528 16.73-16.73V16.964c0-9.201-7.529-16.73-16.73-16.73H16.73z" fill="url(#b)" mask="url(#c)"/><g fill="#FFF"><path d="M29.493 20.845c0 .204-.057.443-.17.714l-5.928 14.136c-.16.364-.409.663-.75.9-.34.239-.715.358-1.123.358h-.341c-.409 0-.783-.12-1.124-.358a2.11 2.11 0 0 1-.75-.9L13.38 21.56c-.114-.271-.171-.51-.171-.714 0-.43.148-.799.443-1.104a1.456 1.456 0 0 1 1.09-.459c.295 0 .574.085.836.255.26.17.447.38.562.63l5.212 13.183 5.212-13.184c.113-.25.3-.46.562-.629a1.5 1.5 0 0 1 .834-.255c.431 0 .794.153 1.09.459.296.305.443.675.443 1.104zM42.25 19.74a1.457 1.457 0 0 0-1.09-.458 1.5 1.5 0 0 0-.834.255c-.261.17-.449.38-.562.63L34.552 33.35l-3.378-8.544-1.616 3.854 2.95 7.035c.158.364.409.663.75.9.34.239.715.358 1.123.358h.341c.409 0 .783-.12 1.124-.358.34-.237.59-.536.75-.9l5.927-14.136c.113-.271.17-.51.17-.714 0-.43-.147-.799-.443-1.104"/></g></g></svg>