<svg xmlns="http://www.w3.org/2000/svg" version="1.1" width="39" height="32" viewBox="0 0 39 32" class="svg-icon"><title>Mobile Navigation</title><path d="M2.84 0.109h34.302c1.176 0 2.13 0.954 2.13 2.13s-0.954 2.13-2.13 2.13h-34.302c-1.177 0-2.13-0.954-2.13-2.13s0.954-2.13 2.13-2.13zM2.84 13.287h34.302c1.176 0 2.13 0.954 2.13 2.13s-0.954 2.13-2.13 2.13h-34.302c-1.177 0-2.13-0.954-2.13-2.13s0.954-2.13 2.13-2.13zM2.84 26.465h34.302c1.176 0 2.13 0.954 2.13 2.13s-0.954 2.13-2.13 2.13h-34.302c-1.177 0-2.13-0.954-2.13-2.13s0.954-2.13 2.13-2.13z"></path>
</svg>
