<svg width="1427" height="867" xmlns="http://www.w3.org/2000/svg" xmlns:xlink="http://www.w3.org/1999/xlink"><defs><linearGradient x1="50%" y1="0%" x2="50%" y2="100%" id="a"><stop stop-color="#0240FF" offset="0%"/><stop stop-color="#0060FF" offset="100%"/></linearGradient><path id="b" d="M.887.21h28.649v31.532H.886z"/><path id="d" d="M0 .48h28.644v27.335H0z"/><path id="f" d="M.685.755h31.252v30.987H.685z"/></defs><g fill="none" fill-rule="evenodd"><ellipse fill="url(#a)" cx="713.5" cy="433.5" rx="713.5" ry="433.5"/><g opacity=".3"><g fill="#FFF"><path d="M1295.498 558.626a1.302 1.302 0 0 0-.982 1.558l2.01 8.886-19.049 4.307-4.308-19.043 7.62-1.723a1.302 1.302 0 1 0-.575-2.54l-8.89 2.011a1.302 1.302 0 0 0-.982 1.556l4.883 21.583c.158.701.855 1.14 1.557.982l21.589-4.88a1.303 1.303 0 0 0 .983-1.558l-2.299-10.156a1.302 1.302 0 0 0-1.557-.983"/><path d="M1295.652 549.396l-4.374-2.76 1.284-2.044 4.38 2.751-1.29 2.053zm-7.412 11.792l-4.083 1.636-.297-4.388 6.032-9.596 4.375 2.76-6.027 9.588zm11.19-15.356l-6.586-4.135a1.3 1.3 0 0 0-1.794.409l-9.62 15.304a1.305 1.305 0 0 0-.198.78l.448 6.595a1.299 1.299 0 0 0 1.586 1.181c.067-.014.133-.035.197-.06l6.14-2.46c.254-.102.47-.282.617-.515l9.62-15.304a1.303 1.303 0 0 0-.41-1.795z"/></g><g fill="#FFF"><path d="M305.232 612.541l.662-5.164 15.498 1.985-.662 5.163-15.498-1.984zm18.063-18.026l-1.572 12.265-15.498-1.986 1.573-12.264 15.497 1.985zm.579-4.519l-.248 1.937-15.497-1.986.248-1.936 15.497 1.985zm2.39-1.826c-.425-.549-1.03-.62-1.458-.678l-16.705-2.14c-.382-.05-1.016-.133-1.577.3a1.618 1.618 0 0 0-.61 1.092l-3.302 25.756c-.122.958.477 2.39 1.733 2.552l16.653 2.133c1.277.164 2.157-1.1 2.277-2.037l3.302-25.757c.075-.579-.13-.983-.313-1.221z"/><path d="M313.438 609.218c-.766-.098-1.461.4-1.553 1.114-.091.713.457 1.37 1.222 1.468.767.098 1.463-.4 1.554-1.113.09-.713-.456-1.37-1.223-1.469"/></g><g fill="#FFF"><path d="M167.866 640.273c-6.117 0-11.093-4.976-11.093-11.09 0-6.115 4.976-11.09 11.093-11.09s11.093 4.975 11.093 11.09c0 6.114-4.976 11.09-11.093 11.09m0-24.732c-7.524 0-13.645 6.12-13.645 13.641 0 7.522 6.121 13.642 13.645 13.642 7.525 0 13.645-6.12 13.645-13.642 0-7.52-6.12-13.64-13.645-13.64"/><path d="M172.266 624.923l-5.973 5.63-2.617-2.684a1.305 1.305 0 0 0-1.842-.024 1.303 1.303 0 0 0-.023 1.841l3.51 3.6a1.299 1.299 0 0 0 1.826.039l6.906-6.508a1.302 1.302 0 0 0-1.786-1.894"/></g><g fill="#FFF"><path d="M1214.297 652.779l-1.617 1.674c-1.025 1.04-2.394 1.655-3.857 1.655h-.033c-1.452 0-2.82-.59-3.857-1.612-2.154-2.123-2.186-5.626-.064-7.779l1.623-1.663a1.298 1.298 0 0 0-.025-1.838 1.302 1.302 0 0 0-1.84.027l-1.618 1.666c-3.124 3.17-3.082 8.31.096 11.441 1.528 1.505 3.545 2.36 5.685 2.36h.049c2.16 0 4.183-.892 5.702-2.434l1.621-1.692a1.297 1.297 0 1 0-1.865-1.805M1222.736 636.342c-1.528-1.505-3.545-2.361-5.684-2.361h-.047c-2.16 0-4.184.893-5.705 2.435l-1.622 1.692a1.297 1.297 0 1 0 1.866 1.805l1.616-1.673c1.027-1.04 2.397-1.656 3.86-1.656h.031c1.452 0 2.82.59 3.856 1.613 2.156 2.122 2.188 5.625.065 7.778l-1.621 1.664a1.3 1.3 0 0 0 .931 2.21c.34 0 .678-.138.933-.4l1.617-1.666c3.125-3.17 3.081-8.31-.096-11.44"/><path d="M1215.17 642.21l-6.354 6.445a1.303 1.303 0 1 0 1.855 1.828l6.354-6.445a1.303 1.303 0 0 0-1.855-1.829"/></g><g fill="#FFF"><path d="M1158.588 561.407c-6.117 0-11.094-4.974-11.094-11.09 0-6.114 4.977-11.089 11.094-11.089 6.116 0 11.093 4.975 11.093 11.09s-4.977 11.09-11.093 11.09m0-24.731c-7.524 0-13.645 6.12-13.645 13.64 0 7.523 6.12 13.641 13.645 13.641 7.523 0 13.645-6.118 13.645-13.64 0-7.521-6.122-13.641-13.645-13.641"/><path d="M1163.96 549.342h-3.906v-4.23a1.302 1.302 0 0 0-2.603 0v4.23h-3.906a1.302 1.302 0 0 0 0 2.603h3.906v3.905a1.301 1.301 0 1 0 2.603 0v-3.905h3.907a1.302 1.302 0 1 0 0-2.603"/></g><path d="M254.138 547.393h-8.463c-.565 0-1.041.362-1.22.865-.01.012-.023.02-.032.031l-3.304 4.042-3.305-4.042-.031-.03a1.298 1.298 0 0 0-1.221-.866H229.4v-16.921h24.738v16.921zm2.085-19.235c-.521-.442-1.13-.34-1.359-.302-.028.005-.058.013-.074.013h-26.026c-.032 0-.061-.009-.09-.013-.227-.039-.836-.14-1.358.302-.194.165-.52.536-.52 1.18v18.465c0 1.037.803 2.193 1.953 2.193h7.097l4.261 5.212c0 .002.002.003.003.003v.001l.004.004c.054.064.114.126.18.18l.017.012c.02.015.04.026.058.04a1.243 1.243 0 0 0 .425.197c.022.005.045.013.069.017a1.268 1.268 0 0 0 .51 0c.025-.004.047-.012.07-.017a1.177 1.177 0 0 0 .255-.095c.06-.028.115-.064.17-.103.019-.013.039-.024.057-.039.005-.004.012-.007.017-.012a1.25 1.25 0 0 0 .184-.184h.001l.003-.004 4.26-5.212h8.4c1.15 0 1.953-1.156 1.953-2.193v-18.465c0-.644-.326-1.015-.52-1.18zM98.178 559.475l-.852-11.47c.628.234 1.299.343 1.98.293l5.193-.386.2 2.687c.063.847.774 2.462 2.134 2.36l5.194-.385c1.359-.102 1.823-1.804 1.76-2.65l-.199-2.687 5.194-.386a4.672 4.672 0 0 0 1.915-.582l.853 11.47-23.372 1.736zm13.008-9.45l-3.897.29-.193-2.596 3.896-.29.194 2.596zm-15.056-9.323l24.67-1.832.168 2.256c.112 1.509-1.044 3.03-2.379 3.13L99.112 545.7c-1.334.1-2.702-1.234-2.815-2.744l-.167-2.255zm8.751-5.218l6.493-.482.096 1.297-6.492.484-.097-1.299zm18.428 2.003c-.05-.662-.422-1.005-.64-1.151-.585-.39-1.176-.198-1.399-.125l-7.156.536-.192-2.587a1.955 1.955 0 0 0-2.092-1.802l-7.79.578a1.955 1.955 0 0 0-1.803 2.092l.192 2.595-7.083.531-.074-.012c-.231-.04-.844-.142-1.365.33-.194.176-.511.572-.462 1.234l.256 3.444c.068.923.372 1.792.842 2.545l1.061 14.282c.069.934.864 2.236 2.117 2.143l24.67-1.832c1.255-.094 1.847-1.498 1.779-2.433l-1.062-14.281c.353-.815.525-1.72.456-2.641l-.255-3.446z" fill="#FFF"/><g transform="translate(1105.857 691.968)"><mask id="c" fill="#fff"><use xlink:href="#b"/></mask><path d="M21.676 26.144l-1.316-7.038a1.303 1.303 0 0 0-1.52-1.04l-7.678 1.436a1.301 1.301 0 0 0-1.041 1.518l1.315 7.036-5.119.957L3.604 14.5l8.482-11.242 12.048 7.698 2.66 14.232-5.118.957zm4.92-16.148a1.295 1.295 0 0 0-.585-.931L12.473.415a1.302 1.302 0 0 0-1.74.313L1.178 13.39a1.298 1.298 0 0 0-.26.742l-.032.006 3.021 16.16c.184.982 1.136 1.602 2.169 1.409l5.838-1.091.64-.12 1.92-.36-1.555-8.315 5.12-.956 1.555 8.316 1.279-.24 1.28-.239 5.838-1.09c1.033-.193 1.697-1.114 1.514-2.097l-2.902-15.52-.008.001z" fill="#FFF" mask="url(#c)"/></g><g transform="translate(430.005 531.446)"><mask id="e" fill="#fff"><use xlink:href="#d"/></mask><path d="M25.929 9.812a5.732 5.732 0 0 1-.881 2.108l-10.73 12.82L3.66 12.005a5.738 5.738 0 0 1-.943-2.199 5.92 5.92 0 0 1-.112-1.148c0-3.073 2.364-5.575 5.27-5.575 2.324 0 4.404 1.647 5.057 4.007.153.554.653.942 1.229.954l.274.006a1.303 1.303 0 0 0 1.28-.954c.652-2.36 2.732-4.007 5.057-4.007 2.905 0 5.27 2.501 5.27 5.574 0 .387-.038.773-.112 1.148M20.77.487c-2.605 0-5 1.354-6.447 3.488C12.876 1.837 10.481.481 7.874.481 3.531.48 0 4.15 0 8.659a8.377 8.377 0 0 0 1.113 4.193c.049.166.133.326.25.468l.24.285c.07.095.14.188.213.279.05.062.103.119.161.168l10.98 13.118c.343.41.838.645 1.36.645.523 0 1.02-.235 1.361-.644l10.946-13.076c.074-.06.143-.129.205-.206l.112-.143.36-.46c.094-.122.163-.254.208-.392a8.36 8.36 0 0 0 1.135-4.23c0-4.509-3.53-8.177-7.873-8.177" fill="#FFF" mask="url(#e)"/></g><g fill="#FFF"><path d="M926.83 552.059c-2.056.645-4.276-.573-4.95-2.715-.673-2.142.45-4.41 2.505-5.056 2.054-.646 4.274.572 4.948 2.714.674 2.142-.45 4.41-2.504 5.057m-3.226-10.255c-3.424 1.077-5.311 4.81-4.206 8.321 1.104 3.512 4.789 5.493 8.213 4.417 3.424-1.077 5.312-4.81 4.208-8.321-1.105-3.512-4.79-5.493-8.215-4.417"/><path d="M940.043 552.845l-23.599 7.419-4.687-14.9 5.64-1.774a1.297 1.297 0 0 0 .926-1.072l.56-3.488 7.158-2.25 2.476 2.56a1.3 1.3 0 0 0 1.327.337l5.511-1.732 4.688 14.9zm-4.226-17.774l-5.986 1.883-2.475-2.562a1.304 1.304 0 0 0-1.328-.337l-8.694 2.733a1.3 1.3 0 0 0-.895 1.036l-.565 3.515-6.14 1.931a1.303 1.303 0 0 0-.852 1.633l5.468 17.383a1.303 1.303 0 0 0 1.633.852l26.083-8.2a1.303 1.303 0 0 0 .851-1.632l-5.467-17.384a1.303 1.303 0 0 0-1.633-.851z"/></g><g transform="translate(274.877 685.62)"><mask id="g" fill="#fff"><use xlink:href="#f"/></mask><path d="M8.288 7.37l20.647.35-3.202 9.709-14.52-.246L8.287 7.37zm14.767 21.994c-.667-.01-1.2-.592-1.188-1.295.012-.703.564-1.265 1.231-1.254.667.01 1.2.593 1.188 1.295-.011.704-.564 1.266-1.231 1.254zm-10.192-.172c-.667-.01-1.2-.592-1.187-1.294.012-.704.564-1.266 1.23-1.255.668.011 1.2.592 1.188 1.296-.012.702-.564 1.265-1.23 1.253zm13.412-9.15c.922.014 1.6-.777 1.863-1.571l3.705-11.256c.23-.693-.012-1.185-.177-1.418-.457-.643-1.19-.656-1.467-.66L7.477 4.752l-.853-2.255a1.29 1.29 0 0 0-.1-.2c.007-.055.018-.108.019-.164A1.3 1.3 0 0 0 5.263.81L2.009.755a1.3 1.3 0 1 0-.045 2.602l2.458.042.983 2.592c-.068.285-.068.59.022.896l3.326 11.158c.046.16.111.32.185.478l-1.89 4.883a1.18 1.18 0 0 0-.067.27 1.284 1.284 0 0 0-.161.592 1.302 1.302 0 0 0 1.28 1.324l2 .034a3.669 3.669 0 0 0-.802 2.231c-.034 2.013 1.547 3.678 3.525 3.712 1.978.034 3.615-1.578 3.649-3.59a3.683 3.683 0 0 0-.726-2.259l4.545.077a3.675 3.675 0 0 0-.802 2.232c-.033 2.014 1.548 3.679 3.526 3.712 1.978.034 3.615-1.578 3.648-3.591a3.672 3.672 0 0 0-.725-2.256l1.038.016a1.301 1.301 0 1 0 .044-2.602l-17.273-.292L11 19.783l15.276.258z" fill="#FFF" mask="url(#g)"/></g></g><path d="M1054.938 604.893c0-5.06 4.173-9.175 9.302-9.175 5.13 0 9.301 4.115 9.301 9.175 0 5.06-4.172 9.175-9.301 9.175-5.13 0-9.302-4.115-9.302-9.175m24.37 14.648l-6.406-6.593c2.005-2.108 3.244-4.938 3.244-8.055 0-6.494-5.342-11.778-11.906-11.778-6.565 0-11.907 5.284-11.907 11.778 0 6.494 5.342 11.778 11.907 11.778 2.472 0 4.77-.75 6.675-2.031l6.525 6.715a1.303 1.303 0 1 0 1.867-1.814" fill="#FFF" opacity=".3"/></g></svg>