<svg width="120" height="14" xmlns="http://www.w3.org/2000/svg"><g fill="#303541" fill-rule="nonzero"><path d="M18.751 12.57a3.85 3.85 0 0 1-1.55-1.619 5.51 5.51 0 0 1 0-4.788 3.885 3.885 0 0 1 1.55-1.62 5.016 5.016 0 0 1 4.66 0c.666.38 1.208.942 1.562 1.62a5.458 5.458 0 0 1 0 4.788 3.95 3.95 0 0 1-1.561 1.62 5.016 5.016 0 0 1-4.66 0zm3.694-1.164c.449-.236.821-.596 1.072-1.037a3.495 3.495 0 0 0 .419-1.8 3.495 3.495 0 0 0-.42-1.783 2.58 2.58 0 0 0-1.071-1.025 3.07 3.07 0 0 0-2.732 0 2.47 2.47 0 0 0-1.072.996 3.495 3.495 0 0 0-.414 1.783 3.495 3.495 0 0 0 .414 1.8c.243.444.615.805 1.066 1.037a2.977 2.977 0 0 0 2.732 0l.006.029zM28.252 12.816a.757.757 0 0 1-.227-.583V4.858a.78.78 0 0 1 .227-.582.751.751 0 0 1 .583-.233.775.775 0 0 1 .582.233.763.763 0 0 1 .233.582v.74c.81-1.083 1.713-1.625 2.72-1.625h.082A.722.722 0 0 1 33 4.2a.757.757 0 0 1 .216.553.693.693 0 0 1-.228.536.792.792 0 0 1-.582.21h-.082a3.006 3.006 0 0 0-1.526.402c-.468.28-.867.662-1.165 1.118v5.243a.746.746 0 0 1-.233.583.786.786 0 0 1-.583.221.763.763 0 0 1-.565-.25zM35.336 12.816a.757.757 0 0 1-.227-.583V1.054a.78.78 0 0 1 .227-.582.722.722 0 0 1 .582-.233.798.798 0 0 1 .781.815v7.101l4.078-3.833a.792.792 0 0 1 .518-.227.687.687 0 0 1 .583.227c.123.151.19.341.186.536a.856.856 0 0 1-.297.583L39.28 7.67l3.128 4.148c.108.132.17.296.175.466a.705.705 0 0 1-.228.554.804.804 0 0 1-.582.21.734.734 0 0 1-.344-.088.845.845 0 0 1-.297-.239l-2.97-4.077-1.463 1.404v2.225a.746.746 0 0 1-.233.582.798.798 0 0 1-.583.222.757.757 0 0 1-.547-.262zM45.734 12.816a2.464 2.464 0 0 1-1.404-2.284 2.417 2.417 0 0 1 1.008-2.045 4.893 4.893 0 0 1 2.965-.757H50.4v-.14a2.103 2.103 0 0 0-.583-1.642 2.563 2.563 0 0 0-1.747-.501 5.907 5.907 0 0 0-1.165.104c-.383.078-.761.18-1.13.31a.984.984 0 0 1-.227.034.617.617 0 0 1-.449-.192.63.63 0 0 1-.192-.466.67.67 0 0 1 .454-.658 7.614 7.614 0 0 1 2.989-.606c.703-.024 1.4.146 2.015.49.517.29.938.725 1.212 1.252a3.6 3.6 0 0 1 .39 1.666v4.893a.763.763 0 0 1-.233.582.804.804 0 0 1-.583.222.757.757 0 0 1-.774-.78v-.473a4.346 4.346 0 0 1-3.257 1.317 3.28 3.28 0 0 1-1.386-.326zm3.495-1.445a4.23 4.23 0 0 0 1.165-.926V8.988h-1.881c-1.748 0-2.61.46-2.61 1.37-.015.379.139.745.42 1.001.409.292.909.426 1.409.379a3.157 3.157 0 0 0 1.474-.35l.023-.017zM55.13 12.816a.757.757 0 0 1-.221-.583V4.858a.775.775 0 0 1 .804-.815.798.798 0 0 1 .792.815v.74c.804-1.083 1.712-1.625 2.714-1.625h.088a.71.71 0 0 1 .542.227.757.757 0 0 1 .215.553.687.687 0 0 1-.221.536.81.81 0 0 1-.583.21h-.087a2.965 2.965 0 0 0-1.52.402c-.47.278-.869.66-1.166 1.118v5.243a.763.763 0 0 1-.233.583.804.804 0 0 1-.582.221.775.775 0 0 1-.542-.25zM62.37 11.942a4.608 4.608 0 0 1-1.164-3.385c-.01-.778.143-1.55.448-2.266.29-.68.769-1.263 1.381-1.677a4.416 4.416 0 0 1 4.515-.041 3.868 3.868 0 0 1 1.42 1.59c.326.678.491 1.421.484 2.173a.769.769 0 0 1-.215.553.786.786 0 0 1-.583.222H62.78c.049.72.37 1.394.897 1.887.61.478 1.376.71 2.15.652.429.007.857-.04 1.275-.14a5.557 5.557 0 0 0 1.06-.395.693.693 0 0 1 .315-.07c.179 0 .351.066.483.186.136.123.21.3.204.484a.734.734 0 0 1-.448.64 5.895 5.895 0 0 1-1.329.583 6.227 6.227 0 0 1-1.695.192 4.433 4.433 0 0 1-3.32-1.188zm5.512-4.113a2.75 2.75 0 0 0-.443-1.415 2.406 2.406 0 0 0-.961-.84 2.656 2.656 0 0 0-2.33 0 2.377 2.377 0 0 0-.938.834 2.802 2.802 0 0 0-.431 1.415l5.103.006zM72.588 12.816a2.452 2.452 0 0 1-1.41-2.284 2.423 2.423 0 0 1 1.014-2.045 4.882 4.882 0 0 1 2.954-.74h2.09v-.14a2.103 2.103 0 0 0-.582-1.642 2.58 2.58 0 0 0-1.747-.5c-.391-.005-.781.03-1.165.104-.384.077-.761.18-1.13.309a.984.984 0 0 1-.228.035.583.583 0 0 1-.448-.193.63.63 0 0 1-.192-.466.676.676 0 0 1 .448-.658 7.666 7.666 0 0 1 2.994-.623c.704-.024 1.401.146 2.016.49.517.29.938.725 1.212 1.252a3.67 3.67 0 0 1 .384 1.666v4.893a.746.746 0 0 1-.233.582.786.786 0 0 1-.582.222.769.769 0 0 1-.781-.78v-.473a4.322 4.322 0 0 1-3.221 1.317 3.262 3.262 0 0 1-1.393-.326zm3.466-1.445c.45-.22.854-.52 1.195-.886V9.03h-1.882c-1.748 0-2.616.46-2.616 1.37-.013.38.143.746.426 1.001.409.292.91.426 1.41.379a3.151 3.151 0 0 0 1.467-.39v-.018zM81.938 12.734a.944.944 0 0 1-.286-.682v-.104a.944.944 0 0 1 .286-.682.926.926 0 0 1 .681-.285h.175a.973.973 0 0 1 .967.967v.104a.973.973 0 0 1-.967.967h-.175a.926.926 0 0 1-.681-.285zM88.078 12.588a4.258 4.258 0 0 1-1.69-1.59 4.614 4.614 0 0 1-.629-2.44 4.59 4.59 0 0 1 .63-2.436 4.317 4.317 0 0 1 1.689-1.596 5.243 5.243 0 0 1 3.88-.32 5.96 5.96 0 0 1 1.24.582.693.693 0 0 1 .344.583.664.664 0 0 1-.198.472.583.583 0 0 1-.46.221.775.775 0 0 1-.38-.105 6.303 6.303 0 0 0-.978-.425 3.326 3.326 0 0 0-1.013-.128 3.128 3.128 0 0 0-2.33.856 3.07 3.07 0 0 0-.851 2.255 3.07 3.07 0 0 0 .85 2.26 3.128 3.128 0 0 0 2.33.856c.343.008.685-.037 1.014-.134a6.81 6.81 0 0 0 .979-.42.775.775 0 0 1 .378-.104.583.583 0 0 1 .46.215.687.687 0 0 1-.145 1.078 5.96 5.96 0 0 1-1.24.582 4.718 4.718 0 0 1-1.58.233 4.899 4.899 0 0 1-2.3-.495zM97.2 12.57a3.839 3.839 0 0 1-1.544-1.619 5.039 5.039 0 0 1-.547-2.394 5.074 5.074 0 0 1 .547-2.394c.344-.68.881-1.243 1.544-1.62a5.027 5.027 0 0 1 4.66 0c.665.378 1.206.94 1.556 1.62a5.458 5.458 0 0 1 0 4.788 3.897 3.897 0 0 1-1.556 1.62c-1.46.763-3.2.763-4.66 0zm3.693-1.164a2.61 2.61 0 0 0 1.049-1.066c.304-.55.45-1.173.425-1.8a3.408 3.408 0 0 0-.425-1.783 2.546 2.546 0 0 0-1.072-1.025 3 3 0 0 0-1.357-.32 3.035 3.035 0 0 0-1.375.32c-.45.228-.82.585-1.066 1.025a3.495 3.495 0 0 0-.414 1.783c-.023.626.12 1.247.414 1.8.247.442.617.802 1.066 1.037.425.22.896.333 1.375.332.48.005.954-.11 1.38-.332v.029zM106.701 12.816a.78.78 0 0 1-.221-.583V4.858a.804.804 0 0 1 .221-.582.763.763 0 0 1 .582-.233.786.786 0 0 1 .583.233.763.763 0 0 1 .233.582v.71a4.177 4.177 0 0 1 1.165-1.164 3.163 3.163 0 0 1 1.748-.454 2.697 2.697 0 0 1 1.66.518c.439.322.78.76.984 1.264a3.495 3.495 0 0 1 3.18-1.782 2.61 2.61 0 0 1 1.62.489c.432.324.764.762.961 1.264.205.505.31 1.045.31 1.59v4.98a.746.746 0 0 1-.234.583.804.804 0 0 1-.582.222.751.751 0 0 1-.548-.222.757.757 0 0 1-.227-.582v-4.66a2.79 2.79 0 0 0-.396-1.655 1.62 1.62 0 0 0-1.37-.524 2.295 2.295 0 0 0-1.461.454c-.41.338-.758.747-1.026 1.206v5.185a.746.746 0 0 1-.238.582.78.78 0 0 1-.583.221.769.769 0 0 1-.78-.78v-4.66a2.75 2.75 0 0 0-.397-1.655 1.608 1.608 0 0 0-1.363-.524 2.295 2.295 0 0 0-1.462.454 4.398 4.398 0 0 0-1.03 1.206v5.185a.746.746 0 0 1-.234.582.804.804 0 0 1-.582.222.775.775 0 0 1-.513-.297zM8.336 4.206c.149.156.229.366.221.582a.926.926 0 0 1-.087.362l-3.006 7.176a1.083 1.083 0 0 1-.384.46.95.95 0 0 1-.583.181h-.169a.95.95 0 0 1-.582-.18 1.083 1.083 0 0 1-.385-.46L.38 5.131a.926.926 0 0 1-.088-.361.78.78 0 0 1 .227-.583.746.746 0 0 1 .583-.233c.15.003.296.05.42.134a.717.717 0 0 1 .285.32l2.621 6.723 2.645-6.705a.717.717 0 0 1 .285-.32.763.763 0 0 1 .979.099zM15.035 4.206a.763.763 0 0 0-.979-.099.717.717 0 0 0-.285.32l-2.645 6.705-1.712-4.346-.822 1.952 1.497 3.577c.078.203.217.378.396.5.17.121.375.185.583.181h.175a.979.979 0 0 0 .582-.18c.167-.115.299-.275.379-.46l3.012-7.195a.926.926 0 0 0 .087-.361.78.78 0 0 0-.268-.594z"/></g></svg>