<svg viewBox="0 0 512 512" xmlns="http://www.w3.org/2000/svg"><path d="m266.6 76.5c-100.2 0-150.7 71.8-150.7 131.7 0 36.3 13.7 68.5 43.2 80.6 4.8 2 9.2.1 10.6-5.3 1-3.7 3.3-13 4.3-16.9 1.4-5.3.9-7.1-3-11.8-8.5-10-13.9-23-13.9-41.3 0-53.3 39.9-101 103.8-101 56.6 0 87.7 34.6 87.7 80.8 0 60.8-26.9 112.1-66.8 112.1-22.1 0-38.6-18.2-33.3-40.6 6.3-26.7 18.6-55.5 18.6-74.8 0-17.3-9.3-31.7-28.4-31.7-22.5 0-40.7 23.3-40.7 54.6 0 19.9 6.7 33.4 6.7 33.4s-23.1 97.8-27.1 114.9c-8.1 34.1-1.2 75.9-.6 80.1.3 2.5 3.6 3.1 5 1.2 2.1-2.7 28.9-35.9 38.1-69 2.6-9.4 14.8-58 14.8-58 7.3 14 28.7 26.3 51.5 26.3 67.8 0 113.8-61.8 113.8-144.5-.1-62.6-53.1-120.8-133.6-120.8"/></svg>
