<svg xmlns="http://www.w3.org/2000/svg" viewBox="0 0 750 471"><rect fill="#000c9d" width="750" height="471" rx="40"/><path fill="#9d9400" d="m48.71 153.58h110.32v99.68h-110.32z"/><g fill="#fff"><path d="m78.1 310.37v-3.795h-5.118v-11.27h-4.198l-.403 11.27h-11.443l10.58-25.07-3.968-1.725-11.673 27.14v3.45h16.445v9.66h4.657v-9.66h5.118"/><path d="m97.69 279.78c-4.03 0-7.877 1.38-11.213 4.6l2.588 2.933c2.645-2.473 5-3.68 8.395-3.68 4.197 0 7.532 2.358 7.532 6.728 0 4.772-3.737 6.957-7.532 6.957h-2.358l-.575 3.795h3.335c4.657 0 8.222 1.84 8.222 7.533 0 4.945-3.278 8.108-8.855 8.108-3.22 0-6.555-1.322-8.798-3.967l-3.22 2.645c2.99 3.68 7.705 5.233 12.133 5.233 8.165 0 13.742-5.175 13.742-12.02 0-6.152-4.37-9.373-9.03-9.717 4.198-.805 7.763-4.428 7.763-9.2 0-5.405-4.715-9.947-12.132-9.947"/><path d="m132.17 279.78c-5.347 0-8.912 1.897-12.08 5.692l3.335 2.53c2.53-2.933 4.657-4.197 8.567-4.197 4.428 0 7.07 2.76 7.07 7.188 0 6.498-3.22 10.81-18.17 25.13v3.91h23.518l.575-4.082h-18.63c13.05-11.902 17.71-17.825 17.71-25.07 0-6.325-4.428-11.1-11.903-11.1"/><path d="m180.9 316.12h-8.28v-35.65h-4.197l-11.73 7.245 2.07 3.392 9.09-5.462v30.475h-9.775v3.91h22.828v-3.91"/><path d="m250.49 310.37v-3.795h-5.118v-11.27h-4.197l-.403 11.27h-11.442l10.58-25.07-3.968-1.725-11.673 27.14v3.45h16.445v9.66h4.657v-9.66h5.118"/><path d="m270.08 279.78c-4.02 0-7.877 1.38-11.212 4.6l2.587 2.933c2.645-2.473 5-3.68 8.395-3.68 4.197 0 7.533 2.358 7.533 6.728 0 4.772-3.738 6.957-7.533 6.957h-2.358l-.575 3.795h3.335c4.658 0 8.223 1.84 8.223 7.533 0 4.945-3.277 8.108-8.855 8.108-3.22 0-6.555-1.322-8.798-3.967l-3.22 2.645c2.99 3.68 7.705 5.233 12.132 5.233 8.165 0 13.743-5.175 13.743-12.02 0-6.152-4.37-9.373-9.03-9.717 4.197-.805 7.762-4.428 7.762-9.2 0-5.405-4.715-9.947-12.132-9.947"/><path d="m304.55 279.78c-5.348 0-8.913 1.897-12.07 5.692l3.335 2.53c2.53-2.933 4.658-4.197 8.567-4.197 4.428 0 7.07 2.76 7.07 7.188 0 6.498-3.22 10.81-18.17 25.13v3.91h23.517l.575-4.082h-18.63c13.05-11.902 17.71-17.825 17.71-25.07 0-6.325-4.428-11.1-11.902-11.1"/><path d="m353.29 316.12h-8.28v-35.65h-4.197l-11.73 7.245 2.07 3.392 9.08-5.462v30.475h-9.775v3.91h22.827v-3.91"/><path d="m422.88 310.37v-3.795h-5.118v-11.27h-4.197l-.402 11.27h-11.442l10.58-25.07-3.967-1.725-11.673 27.14v3.45h16.445v9.66h4.658v-9.66h5.118"/><path d="m442.46 279.78c-4.02 0-7.877 1.38-11.212 4.6l2.587 2.933c2.645-2.473 5-3.68 8.395-3.68 4.197 0 7.533 2.358 7.533 6.728 0 4.772-3.738 6.957-7.533 6.957h-2.358l-.575 3.795h3.335c4.658 0 8.223 1.84 8.223 7.533 0 4.945-3.277 8.108-8.855 8.108-3.22 0-6.555-1.322-8.798-3.967l-3.22 2.645c2.99 3.68 7.705 5.233 12.132 5.233 8.165 0 13.743-5.175 13.743-12.02 0-6.152-4.37-9.373-9.03-9.717 4.197-.805 7.762-4.428 7.762-9.2 0-5.405-4.715-9.947-12.132-9.947"/><path d="m476.94 279.78c-5.348 0-8.913 1.897-12.07 5.692l3.335 2.53c2.53-2.933 4.658-4.197 8.567-4.197 4.428 0 7.07 2.76 7.07 7.188 0 6.498-3.22 10.81-18.17 25.13v3.91h23.517l.575-4.082h-18.63c13.05-11.902 17.71-17.825 17.71-25.07 0-6.325-4.428-11.1-11.902-11.1"/><path d="m525.68 316.12h-8.28v-35.65h-4.197l-11.73 7.245 2.07 3.392 9.08-5.462v30.475h-9.775v3.91h22.827v-3.91"/><path d="m595.27 310.37v-3.795h-5.117v-11.27h-4.197l-.403 11.27h-11.442l10.58-25.07-3.967-1.725-11.673 27.14v3.45h16.445v9.66h4.658v-9.66h5.117"/><path d="m614.85 279.78c-4.02 0-7.878 1.38-11.212 4.6l2.587 2.933c2.645-2.473 5-3.68 8.395-3.68 4.197 0 7.533 2.358 7.533 6.728 0 4.772-3.737 6.957-7.533 6.957h-2.357l-.575 3.795h3.335c4.658 0 8.222 1.84 8.222 7.533 0 4.945-3.278 8.108-8.855 8.108-3.22 0-6.555-1.322-8.798-3.967l-3.22 2.645c2.99 3.68 7.705 5.233 12.133 5.233 8.165 0 13.742-5.175 13.742-12.02 0-6.152-4.37-9.373-9.03-9.717 4.197-.805 7.763-4.428 7.763-9.2 0-5.405-4.715-9.947-12.133-9.947"/><path d="m649.33 279.78c-5.347 0-8.913 1.897-12.08 5.692l3.335 2.53c2.53-2.933 4.658-4.197 8.567-4.197 4.428 0 7.07 2.76 7.07 7.188 0 6.498-3.22 10.81-18.17 25.13v3.91h23.518l.575-4.082h-18.63c13.05-11.902 17.71-17.825 17.71-25.07 0-6.325-4.428-11.1-11.903-11.1"/><path d="m698.07 316.12h-8.28v-35.65h-4.197l-11.73 7.245 2.07 3.392 9.09-5.462v30.475h-9.775v3.91h22.827v-3.91"/><g fill-opacity=".784"><path d="m55.607 415.42h6.445v-22.246l-7.01 1.406v-3.594l6.973-1.406h3.945v25.84h6.445v3.32h-16.797v-3.32"/><path d="m81.08 415.42h6.445v-22.246l-7.01 1.406v-3.594l6.973-1.406h3.945v25.84h6.445v3.32h-16.797v-3.32"/><path d="m121.99 415.42h13.77v3.32h-18.516v-3.32q2.246-2.324 6.113-6.23 3.887-3.926 4.883-5.059 1.895-2.129 2.637-3.594.762-1.484.762-2.91 0-2.324-1.641-3.789-1.621-1.465-4.238-1.465-1.855 0-3.926.645-2.051.645-4.395 1.953v-3.984q2.383-.957 4.453-1.445 2.07-.488 3.789-.488 4.531 0 7.227 2.266 2.695 2.266 2.695 6.05 0 1.797-.684 3.418-.664 1.602-2.441 3.789-.488.566-3.105 3.281-2.617 2.695-7.383 7.559"/><path d="m156.02 403.02q2.832.605 4.414 2.52 1.602 1.914 1.602 4.727 0 4.316-2.969 6.68-2.969 2.363-8.438 2.363-1.836 0-3.789-.371-1.934-.352-4-1.074v-3.809q1.641.957 3.594 1.445 1.953.488 4.082.488 3.711 0 5.645-1.465 1.953-1.465 1.953-4.258 0-2.578-1.816-4.02-1.797-1.465-5.02-1.465h-3.398v-3.242h3.555q2.91 0 4.453-1.152 1.543-1.172 1.543-3.359 0-2.246-1.602-3.438-1.582-1.211-4.551-1.211-1.621 0-3.477.352-1.855.352-4.082 1.094v-3.516q2.246-.625 4.199-.938 1.973-.313 3.711-.313 4.492 0 7.109 2.051 2.617 2.031 2.617 5.508 0 2.422-1.387 4.102-1.387 1.66-3.945 2.305"/><path d="m182.31 389.58h15.488v3.32h-11.875v7.148q.859-.293 1.719-.43.859-.156 1.719-.156 4.883 0 7.734 2.676 2.852 2.676 2.852 7.246 0 4.707-2.93 7.324-2.93 2.598-8.262 2.598-1.836 0-3.75-.313-1.895-.313-3.926-.938v-3.965q1.758.957 3.633 1.426 1.875.469 3.965.469 3.379 0 5.352-1.777 1.973-1.777 1.973-4.824 0-3.047-1.973-4.824-1.973-1.777-5.352-1.777-1.582 0-3.164.352-1.563.352-3.203 1.094v-14.648"/><path d="m216.17 404.89q-2.813 0-4.434 1.504-1.602 1.504-1.602 4.141 0 2.637 1.602 4.141 1.621 1.504 4.434 1.504 2.813 0 4.434-1.504 1.621-1.523 1.621-4.141 0-2.637-1.621-4.141-1.602-1.504-4.434-1.504m-3.945-1.68q-2.539-.625-3.965-2.363-1.406-1.738-1.406-4.238 0-3.496 2.48-5.527 2.5-2.031 6.836-2.031 4.355 0 6.836 2.031 2.48 2.031 2.48 5.527 0 2.5-1.426 4.238-1.406 1.738-3.926 2.363 2.852.664 4.434 2.598 1.602 1.934 1.602 4.727 0 4.238-2.598 6.504-2.578 2.266-7.402 2.266-4.824 0-7.422-2.266-2.578-2.266-2.578-6.504 0-2.793 1.602-4.727 1.602-1.934 4.453-2.598m-1.445-6.23q0 2.266 1.406 3.535 1.426 1.27 3.984 1.27 2.539 0 3.965-1.27 1.445-1.27 1.445-3.535 0-2.266-1.445-3.535-1.426-1.27-3.965-1.27-2.559 0-3.984 1.27-1.406 1.27-1.406 3.535"/><path d="m308.84 414.45h6.445v-22.246l-7.01 1.406v-3.594l6.973-1.406h3.945v25.84h6.445v3.32h-16.797v-3.32"/><path d="m345.57 402.05q2.832.605 4.414 2.52 1.602 1.914 1.602 4.727 0 4.316-2.969 6.68-2.969 2.363-8.438 2.363-1.836 0-3.789-.371-1.934-.352-4-1.074v-3.809q1.641.957 3.594 1.445 1.953.488 4.082.488 3.711 0 5.645-1.465 1.953-1.465 1.953-4.258 0-2.578-1.816-4.02-1.797-1.465-5.02-1.465h-3.398v-3.242h3.555q2.91 0 4.453-1.152 1.543-1.172 1.543-3.359 0-2.246-1.602-3.438-1.582-1.211-4.551-1.211-1.621 0-3.477.352-1.855.352-4.082 1.094v-3.516q2.246-.625 4.199-.938 1.973-.313 3.711-.313 4.492 0 7.109 2.051 2.617 2.031 2.617 5.508 0 2.422-1.387 4.102-1.387 1.66-3.945 2.305"/><path d="m362.49 414.45h13.77v3.32h-18.516v-3.32q2.246-2.324 6.113-6.23 3.887-3.926 4.883-5.059 1.895-2.129 2.637-3.594.762-1.484.762-2.91 0-2.324-1.641-3.789-1.621-1.465-4.238-1.465-1.855 0-3.926.645-2.051.645-4.395 1.953v-3.984q2.383-.957 4.453-1.445 2.07-.488 3.789-.488 4.531 0 7.227 2.266 2.695 2.266 2.695 6.05 0 1.797-.684 3.418-.664 1.602-2.441 3.789-.488.566-3.105 3.281-2.617 2.695-7.383 7.559"/><path d="m385.24 414.45h6.445v-22.246l-7.01 1.406v-3.594l6.973-1.406h3.945v25.84h6.445v3.32h-16.797v-3.32"/><path d="m434.72 402.05q2.832.605 4.414 2.52 1.602 1.914 1.602 4.727 0 4.316-2.969 6.68-2.969 2.363-8.438 2.363-1.836 0-3.789-.371-1.934-.352-4-1.074v-3.809q1.641.957 3.594 1.445 1.953.488 4.082.488 3.711 0 5.645-1.465 1.953-1.465 1.953-4.258 0-2.578-1.816-4.02-1.797-1.465-5.02-1.465h-3.398v-3.242h3.555q2.91 0 4.453-1.152 1.543-1.172 1.543-3.359 0-2.246-1.602-3.438-1.582-1.211-4.551-1.211-1.621 0-3.477.352-1.855.352-4.082 1.094v-3.516q2.246-.625 4.199-.938 1.973-.313 3.711-.313 4.492 0 7.109 2.051 2.617 2.031 2.617 5.508 0 2.422-1.387 4.102-1.387 1.66-3.945 2.305"/><path d="m459.07 392.05l-9.961 15.566h9.961v-15.566m-1.035-3.438h4.961v19h4.16v3.281h-4.16v6.875h-3.926v-6.875h-13.164v-3.809l12.13-18.477"/><path d="m473.74 388.61h15.488v3.32h-11.875v7.148q.859-.293 1.719-.43.859-.156 1.719-.156 4.883 0 7.734 2.676 2.852 2.676 2.852 7.246 0 4.707-2.93 7.324-2.93 2.598-8.262 2.598-1.836 0-3.75-.313-1.895-.313-3.926-.938v-3.965q1.758.957 3.633 1.426 1.875.469 3.965.469 3.379 0 5.352-1.777 1.973-1.777 1.973-4.824 0-3.047-1.973-4.824-1.973-1.777-5.352-1.777-1.582 0-3.164.352-1.563.352-3.203 1.094v-14.648"/><path d="m499.21 388.61h15.488v3.32h-11.875v7.148q.859-.293 1.719-.43.859-.156 1.719-.156 4.883 0 7.734 2.676 2.852 2.676 2.852 7.246 0 4.707-2.93 7.324-2.93 2.598-8.262 2.598-1.836 0-3.75-.313-1.895-.313-3.926-.938v-3.965q1.758.957 3.633 1.426 1.875.469 3.965.469 3.379 0 5.352-1.777 1.973-1.777 1.973-4.824 0-3.047-1.973-4.824-1.973-1.777-5.352-1.777-1.582 0-3.164.352-1.563.352-3.203 1.094v-14.648"/></g></g></svg>