<svg xmlns="http://www.w3.org/2000/svg" viewBox="0 0 176 28"><path d="M51.39 9.32a8.56 8.56 0 0 1 3.38 3.51A11 11 0 0 1 56 18a11 11 0 0 1-1.2 5.21 8.55 8.55 0 0 1-3.38 3.51 10.92 10.92 0 0 1-10.11 0 8.43 8.43 0 0 1-3.36-3.51A11.11 11.11 0 0 1 36.73 18a11.12 11.12 0 0 1 1.18-5.21 8.44 8.44 0 0 1 3.36-3.51 10.92 10.92 0 0 1 10.12.04zm-2.08 14.85a5.74 5.74 0 0 0 2.33-2.26 7.52 7.52 0 0 0 .92-3.91 7.45 7.45 0 0 0-.92-3.87 5.63 5.63 0 0 0-2.33-2.24 6.6 6.6 0 0 0-3-.69 6.68 6.68 0 0 0-3 .69A5.51 5.51 0 0 0 41 14.13a7.57 7.57 0 0 0-.9 3.87 7.64 7.64 0 0 0 .9 3.91 5.62 5.62 0 0 0 2.31 2.26 6.52 6.52 0 0 0 3 .71 6.45 6.45 0 0 0 3-.71zM72.64 8.57a1.67 1.67 0 0 1 .47 1.2 1.51 1.51 0 0 1-.49 1.16 1.76 1.76 0 0 1-1.24.45h-.19a6.41 6.41 0 0 0-3.31.88 7.62 7.62 0 0 0-2.52 2.42v11.44a1.6 1.6 0 0 1-.51 1.2 1.7 1.7 0 0 1-1.22.49 1.67 1.67 0 0 1-1.69-1.69V10a1.7 1.7 0 0 1 .49-1.22 1.6 1.6 0 0 1 1.2-.51A1.73 1.73 0 0 1 65.37 10v1.62q2.63-3.54 5.9-3.54h.19a1.57 1.57 0 0 1 1.18.49zM94.17 26.16a1.56 1.56 0 0 1-.49 1.2 1.76 1.76 0 0 1-1.24.45 1.67 1.67 0 0 1-.75-.19 1.84 1.84 0 0 1-.69-.52l-6.46-8.8-3.27 3v4.85a1.6 1.6 0 0 1-.51 1.2 1.7 1.7 0 0 1-1.22.49 1.67 1.67 0 0 1-1.69-1.69V1.73a1.7 1.7 0 0 1 .53-1.22A1.61 1.61 0 0 1 79.59 0a1.67 1.67 0 0 1 1.22.51 1.67 1.67 0 0 1 .51 1.22V17.1l8.95-8.27a1.73 1.73 0 0 1 1.13-.49 1.53 1.53 0 0 1 1.26.49A1.79 1.79 0 0 1 93 10a1.84 1.84 0 0 1-.64 1.28L87 16.12l6.8 9a1.65 1.65 0 0 1 .37 1.04zM111.44 9.13a6.62 6.62 0 0 1 2.63 2.72 7.93 7.93 0 0 1 .85 3.63v10.64a1.6 1.6 0 0 1-.51 1.2 1.7 1.7 0 0 1-1.22.49 1.67 1.67 0 0 1-1.69-1.69v-1a9.44 9.44 0 0 1-7.07 2.88 7 7 0 0 1-3.06-.68 5.34 5.34 0 0 1-2.24-2 5.43 5.43 0 0 1-.83-3 5.27 5.27 0 0 1 2.2-4.44q2.2-1.65 6.45-1.65h4.55V16a4.58 4.58 0 0 0-1.22-3.57 5.62 5.62 0 0 0-3.81-1.09 12.79 12.79 0 0 0-2.54.23 21 21 0 0 0-2.46.68 2.12 2.12 0 0 1-.49.07 1.33 1.33 0 0 1-1-.41 1.38 1.38 0 0 1-.41-1 1.45 1.45 0 0 1 1-1.43 16.53 16.53 0 0 1 6.5-1.35 8.48 8.48 0 0 1 4.37 1zm-2.54 15.06a8.87 8.87 0 0 0 2.59-2V19h-4.1q-5.68 0-5.67 3a2.79 2.79 0 0 0 .92 2.18 4.55 4.55 0 0 0 3.06.83 6.79 6.79 0 0 0 3.2-.82zM132.51 8.57a1.67 1.67 0 0 1 .47 1.2 1.51 1.51 0 0 1-.49 1.16 1.76 1.76 0 0 1-1.24.45h-.19a6.41 6.41 0 0 0-3.31.88 7.62 7.62 0 0 0-2.52 2.42v11.44a1.6 1.6 0 0 1-.51 1.2 1.7 1.7 0 0 1-1.22.49 1.67 1.67 0 0 1-1.69-1.69V10a1.7 1.7 0 0 1 .49-1.22 1.6 1.6 0 0 1 1.2-.51 1.73 1.73 0 0 1 1.74 1.73v1.62q2.63-3.53 5.9-3.53h.19a1.57 1.57 0 0 1 1.18.48zM152.92 23.9a1.37 1.37 0 0 1 .45 1.05 1.62 1.62 0 0 1-1 1.39 13.58 13.58 0 0 1-2.89 1.24 13.58 13.58 0 0 1-3.68.41 9.59 9.59 0 0 1-7.16-2.61q-2.57-2.61-2.57-7.35a12.24 12.24 0 0 1 1-4.92 8.37 8.37 0 0 1 3-3.65 8.64 8.64 0 0 1 5-1.39 8.75 8.75 0 0 1 4.81 1.3 8.39 8.39 0 0 1 3.12 3.46 10.64 10.64 0 0 1 1 4.72 1.64 1.64 0 0 1-1.73 1.69h-12.73a6.18 6.18 0 0 0 2 4.1 6.74 6.74 0 0 0 4.62 1.47 11.29 11.29 0 0 0 2.76-.3 11.42 11.42 0 0 0 2.31-.86 1.57 1.57 0 0 1 1.69.25zm-10.38-12.34a5.05 5.05 0 0 0-2.07 1.82 6.14 6.14 0 0 0-.94 3.08h11.09a6 6 0 0 0-1-3.08 5.17 5.17 0 0 0-2.09-1.82 5.74 5.74 0 0 0-4.99 0zM171.36 9.13a6.62 6.62 0 0 1 2.64 2.73 7.93 7.93 0 0 1 .85 3.63v10.63a1.6 1.6 0 0 1-.51 1.2 1.7 1.7 0 0 1-1.22.49 1.67 1.67 0 0 1-1.69-1.69v-1a9.44 9.44 0 0 1-7.08 2.88 7 7 0 0 1-3.06-.68 5.34 5.34 0 0 1-2.24-2 5.43 5.43 0 0 1-.83-3 5.27 5.27 0 0 1 2.2-4.44q2.2-1.65 6.45-1.65h4.55V16a4.58 4.58 0 0 0-1.22-3.57 5.62 5.62 0 0 0-3.81-1.09 12.79 12.79 0 0 0-2.54.23 21 21 0 0 0-2.46.68 2.12 2.12 0 0 1-.49.07 1.33 1.33 0 0 1-1-.41 1.38 1.38 0 0 1-.41-1 1.45 1.45 0 0 1 1-1.43 16.53 16.53 0 0 1 6.51-1.4 8.48 8.48 0 0 1 4.36 1.05zm-2.54 15.05a8.87 8.87 0 0 0 2.59-2V19h-4.1q-5.68 0-5.67 3a2.79 2.79 0 0 0 .92 2.18 4.55 4.55 0 0 0 3.06.83 6.79 6.79 0 0 0 3.2-.82zM18.64 9a1.7 1.7 0 0 1 .49 1.22 2.12 2.12 0 0 1-.19.79l-6.53 15.6a2.35 2.35 0 0 1-.83 1 2.12 2.12 0 0 1-1.24.4H10a2.12 2.12 0 0 1-1.24-.4 2.34 2.34 0 0 1-.83-1L1.36 11a2.1 2.1 0 0 1-.19-.79A1.7 1.7 0 0 1 1.66 9a1.61 1.61 0 0 1 1.2-.51 1.66 1.66 0 0 1 .92.28 1.64 1.64 0 0 1 .62.69L10.15 24 15.9 9.43a1.63 1.63 0 0 1 .62-.69 1.65 1.65 0 0 1 .92-.28 1.61 1.61 0 0 1 1.2.54zM33.21 9A1.61 1.61 0 0 0 32 8.46a1.65 1.65 0 0 0-.92.28 1.63 1.63 0 0 0-.62.69L24.72 24 21 14.56l-1.8 4.27 3.25 7.78a2.34 2.34 0 0 0 .83 1 2.12 2.12 0 0 0 1.24.4h.38a2.12 2.12 0 0 0 1.24-.4 2.35 2.35 0 0 0 .83-1L33.51 11a2.12 2.12 0 0 0 .19-.79A1.7 1.7 0 0 0 33.21 9z"/></svg>