<svg xmlns="http://www.w3.org/2000/svg" viewBox="0 0 64 64"><path d="M64 44.8V6.4A6.42 6.42 0 0 0 57.6 0H19.2a6.42 6.42 0 0 0-6.4 6.4v38.4a6.42 6.42 0 0 0 6.4 6.4h38.4a6.42 6.42 0 0 0 6.4-6.4zm-64-32v44.8A6.42 6.42 0 0 0 6.4 64h44.8v-6.4H6.4V12.8z"/><g fill="#fff"><path d="m47.87 30.8h-14.18a1.51 1.51 0 1 0 0 3h14.18a1.51 1.51 0 0 0 0 -3m0-6.39h-14.18a1.51 1.51 0 1 0 0 3h14.18a1.51 1.51 0 0 0 0 -3m0-6.41h-14.18a1.51 1.51 0 1 0 0 3h14.18a1.51 1.51 0 0 0 0 -3"/><circle cx="28.93" cy="19.54" r="1.51"/><circle cx="28.93" cy="25.98" r="1.51"/><circle cx="28.93" cy="32.41" r="1.51"/></g></svg>