<svg data-name="Layer 1" xmlns="http://www.w3.org/2000/svg" viewBox="0 0 64 40.93"><defs><style>.cls-1{fill:#fff;}</style></defs><title>custom_block</title><path d="M58.75,35.93a5,5,0,0,1-5,5H10.25a5,5,0,0,1-5-5V5a5,5,0,0,1,5-5H53.75a5,5,0,0,1,5,5Z"/><polygon class="cls-1" points="23.73 25.88 22.3 30.16 26.58 28.73 23.73 25.88"/><path class="cls-1" d="M41.36,12.34,40.12,11.1a1.14,1.14,0,0,0-1.61,0L37.42,12.2,40.27,15,41.36,14h0A1.14,1.14,0,0,0,41.36,12.34Z"/><polygon class="cls-1" points="37.13 22.18 36.33 21.37 35.94 20.99 33.66 23.27 34.4 24 33.26 25.15 33.71 25.6 34.16 26.05 35.3 24.91 36.11 25.72 34.97 26.86 35.87 27.76 37.02 26.62 37.82 27.43 36.68 28.57 38.27 30.16 41.7 26.74 37.13 22.18"/><polygon class="cls-1" points="25.04 14.64 25.84 15.45 24.7 16.59 25.61 17.5 26.75 16.36 27.56 17.16 26.41 18.3 26.87 18.75 27.32 19.21 28.46 18.07 29.27 18.87 28.13 20.01 28.86 20.75 24.54 25.08 27.39 27.93 31.71 23.6 31.71 23.6 35.14 20.18 35.14 20.18 39.46 15.85 36.61 13 32.28 17.33 31.1 16.14 30.29 15.33 25.73 10.77 22.3 14.19 23.9 15.78 25.04 14.64"/></svg>