<svg xmlns="http://www.w3.org/2000/svg" viewBox="0 0 64 40.54"><rect width="14.72" height="19.61" rx="5"/><rect x="16.56" width="14.72" height="19.61" rx="5"/><rect x="33.13" width="14.72" height="19.61" rx="5"/><path fill="#fff" d="M28 17.54l-2.94-.7a.28.28 0 0 0-.24.05.7.7 0 0 1-1.4 0 .28.28 0 0 0-.24-.05l-2.94.7a.27.27 0 0 0-.21.32l.36 1.81a.28.28 0 0 0 .27.22h1v3.29a.28.28 0 0 0 .28.28h4.25a.28.28 0 0 0 .28-.28v-3.32h1a.28.28 0 0 0 .27-.22l.36-1.81a.27.27 0 0 0-.1-.29zM44.53 17.54l-2.94-.7a.28.28 0 0 0-.24.05.7.7 0 0 1-1.4 0 .28.28 0 0 0-.24-.05l-2.94.7a.27.27 0 0 0-.21.32l.36 1.81a.28.28 0 0 0 .27.22h1v3.29a.28.28 0 0 0 .28.28h4.25a.28.28 0 0 0 .28-.28v-3.32h1a.28.28 0 0 0 .27-.22l.36-1.81a.27.27 0 0 0-.1-.29zM10.95 17.54L8 16.84a.28.28 0 0 0-.24.05.7.7 0 0 1-1.4 0 .28.28 0 0 0-.24-.05l-2.94.7a.27.27 0 0 0-.21.32l.36 1.81a.28.28 0 0 0 .27.22h1v3.29a.28.28 0 0 0 .28.28h4.31a.28.28 0 0 0 .28-.28v-3.32h1a.28.28 0 0 0 .27-.22l.36-1.81a.27.27 0 0 0-.15-.29z" transform="translate(0-9.88)"/><rect y="20.92" width="14.72" height="19.61" rx="5"/><rect x="16.56" y="20.92" width="14.72" height="19.61" rx="5"/><rect x="33.13" y="20.92" width="14.72" height="19.61" rx="5"/><path fill="#fff" d="M28 38.46l-2.94-.7a.28.28 0 0 0-.24.05.7.7 0 0 1-1.4 0 .28.28 0 0 0-.24-.05l-2.94.7a.27.27 0 0 0-.21.32l.36 1.81a.28.28 0 0 0 .27.22h1v3.29a.28.28 0 0 0 .28.28h4.25a.28.28 0 0 0 .28-.28v-3.32h1a.28.28 0 0 0 .27-.22l.36-1.81a.27.27 0 0 0-.1-.29zM44.53 38.46l-2.94-.7a.28.28 0 0 0-.24.05.7.7 0 0 1-1.4 0 .28.28 0 0 0-.24-.05l-2.94.7a.27.27 0 0 0-.21.32l.36 1.81a.28.28 0 0 0 .27.22h1v3.29a.28.28 0 0 0 .28.28h4.25a.28.28 0 0 0 .28-.28v-3.32h1a.28.28 0 0 0 .27-.22l.36-1.81a.27.27 0 0 0-.1-.29zM10.95 38.46L8 37.76a.28.28 0 0 0-.24.05.7.7 0 0 1-1.4 0 .28.28 0 0 0-.24-.05l-2.94.7a.27.27 0 0 0-.21.32l.36 1.81a.28.28 0 0 0 .27.22h1v3.29a.28.28 0 0 0 .28.28h4.31a.28.28 0 0 0 .28-.28v-3.32h1a.28.28 0 0 0 .27-.22l.36-1.81a.27.27 0 0 0-.15-.29z" transform="translate(0-9.88)"/><rect x="49.28" width="14.72" height="19.61" rx="5"/><path fill="#fff" d="M60.23 17.54l-2.94-.7a.28.28 0 0 0-.24.05.7.7 0 0 1-1.4 0 .28.28 0 0 0-.24-.05l-2.94.7a.27.27 0 0 0-.21.32l.36 1.81a.28.28 0 0 0 .27.22h1v3.29a.28.28 0 0 0 .28.28h4.25a.28.28 0 0 0 .28-.28v-3.32h1a.28.28 0 0 0 .27-.22l.36-1.81a.27.27 0 0 0-.1-.29z" transform="translate(0-9.88)"/><rect x="49.28" y="20.92" width="14.72" height="19.61" rx="5"/><path fill="#fff" d="M60.23 38.46l-2.94-.7a.28.28 0 0 0-.24.05.7.7 0 0 1-1.4 0 .28.28 0 0 0-.24-.05l-2.94.7a.27.27 0 0 0-.21.32l.36 1.81a.28.28 0 0 0 .27.22h1v3.29a.28.28 0 0 0 .28.28h4.25a.28.28 0 0 0 .28-.28v-3.32h1a.28.28 0 0 0 .27-.22l.36-1.81a.27.27 0 0 0-.1-.29z" transform="translate(0-9.88)"/></svg>