<svg height="62" viewBox="0 -14 54 100" xmlns="http://www.w3.org/2000/svg"><g fill-rule="evenodd"><path d="m27 0c-.71 0-1.286.575-1.286 1.286v5.143c0 .71.575 1.286 1.286 1.286.71 0 1.286-.575 1.286-1.286v-5.143c0-.71-.575-1.286-1.286-1.286m-18.18 7.534c-.329 0-.653.131-.904.382-.502.502-.502 1.306 0 1.808l3.636 3.636c.502.502 1.306.502 1.808 0 .502-.502.502-1.306 0-1.808l-3.636-3.636c-.251-.251-.575-.382-.904-.382m36.36 0c-.329 0-.653.131-.904.382l-3.636 3.636c-.502.502-.502 1.306 0 1.808.502.502 1.306.502 1.808 0l3.636-3.636c.502-.502.502-1.306 0-1.808-.251-.251-.575-.382-.904-.382m-18.18 4.04c-7.84 0-15.429 6.082-15.429 14.685 0 11.163 8.357 13.5 8.357 21.317h14.14c0-7.815 8.357-10.153 8.357-21.317 0-8.603-7.589-14.685-15.429-14.685m-25.714 14.14c-.71 0-1.286.575-1.286 1.286 0 .71.575 1.286 1.286 1.286h5.143c.71 0 1.286-.575 1.286-1.286 0-.71-.575-1.286-1.286-1.286h-5.143m46.29 0c-.71 0-1.286.575-1.286 1.286 0 .71.575 1.286 1.286 1.286h5.143c.71 0 1.286-.575 1.286-1.286 0-.71-.575-1.286-1.286-1.286h-5.143m-27.643 24.429v2.571h14.14v-2.571h-14.14m0 5.143c0 1.477 1.214 2.571 2.571 2.571h9c1.357 0 2.571-1.094 2.571-2.571h-14.14m4.5 3.857c0 1.425 1.147 2.571 2.571 2.571 1.425 0 2.571-1.147 2.571-2.571h-5.143"  fill-rule="nonzero"/></g></svg>
