<svg data-name="Layer 1" xmlns="http://www.w3.org/2000/svg" viewBox="0 0 64 40.93"><defs><style>.cls-1{fill:#fff;}</style></defs><title>quote</title><path d="M58.75,35.93a5,5,0,0,1-5,5H10.25a5,5,0,0,1-5-5V5a5,5,0,0,1,5-5H53.75a5,5,0,0,1,5,5Z"/><path class="cls-1" d="M14,15q1.56-1.9,5.16-2v3.44a2.66,2.66,0,0,0-2,1,4.19,4.19,0,0,0-.56,2.4v.48h2.56v7.68H12.44v-7.2Q12.44,16.87,14,15Zm9.16,0q1.56-1.9,5.16-2v3.44a2.66,2.66,0,0,0-2,1,4.2,4.2,0,0,0-.56,2.4v.48h2.56v7.68H21.6v-7.2Q21.6,16.87,23.16,15Z"/><path class="cls-1" d="M42.4,13v7.2q0,3.88-1.56,5.78t-5.16,2V24.51a2.66,2.66,0,0,0,2-1,4.2,4.2,0,0,0,.56-2.4v-.48H35.68V13Zm9.16,0v7.2q0,3.88-1.56,5.78t-5.16,2V24.51a2.66,2.66,0,0,0,2-1,4.2,4.2,0,0,0,.56-2.4v-.48H44.84V13Z"/></svg>