<svg xmlns="http://www.w3.org/2000/svg" viewBox="0 0 64 26.23"><rect width="19.69" height="26.23" rx="5"/><rect x="22.16" width="19.69" height="26.23" rx="5"/><rect x="44.31" width="19.69" height="26.23" rx="5"/><path d="M37.42 30l-3.93-.94a.38.38 0 0 0-.32.07.94.94 0 0 1-1.87 0 .38.38 0 0 0-.32-.07L27 30a.37.37 0 0 0-.28.43l.49 2.43a.37.37 0 0 0 .36.3l1.43-.04v4.4a.38.38 0 0 0 .38.38h5.68a.38.38 0 0 0 .38-.38v-4.4l1.39.06a.37.37 0 0 0 .36-.3l.49-2.43a.37.37 0 0 0-.26-.45zM59.52 30l-3.93-.94a.38.38 0 0 0-.32.07.94.94 0 0 1-1.87 0 .38.38 0 0 0-.32-.07l-3.94.94a.37.37 0 0 0-.28.43l.49 2.43a.37.37 0 0 0 .36.3l1.39-.06v4.4a.38.38 0 0 0 .38.38h5.68a.38.38 0 0 0 .38-.38v-4.4l1.39.06a.37.37 0 0 0 .36-.3l.49-2.43a.37.37 0 0 0-.26-.43zM14.58 30l-3.93-.94a.38.38 0 0 0-.32.07.94.94 0 0 1-1.87 0 .38.38 0 0 0-.32-.07L4.21 30a.37.37 0 0 0-.28.43l.49 2.43a.37.37 0 0 0 .36.3l1.39-.06v4.4a.38.38 0 0 0 .38.38h5.68a.38.38 0 0 0 .38-.38v-4.4l1.39.06a.37.37 0 0 0 .36-.3l.49-2.43a.37.37 0 0 0-.27-.43z" transform="translate(.06-19.78)" fill="#fff"/></svg>