<svg xmlns="http://www.w3.org/2000/svg" viewBox="0 0 64 40.93"><path d="M11,9l.32-2.51H8.88V4.88c0-.73.2-1.22,1.24-1.22h1.33V1.41a17.7,17.7,0,0,0-1.93-.1A3,3,0,0,0,6.29,4.63V6.48H4.12V9H6.29v6.43H8.88V9Z"/><path d="M38.22,3.42a5.78,5.78,0,0,1-1.66.46,2.9,2.9,0,0,0,1.27-1.6A5.78,5.78,0,0,1,36,3a2.9,2.9,0,0,0-4.93,2.64,8.21,8.21,0,0,1-6-3A2.9,2.9,0,0,0,26,6.46a2.88,2.88,0,0,1-1.31-.36v0A2.9,2.9,0,0,0,27,9a2.91,2.91,0,0,1-.76.1A2.87,2.87,0,0,1,25.7,9a2.9,2.9,0,0,0,2.7,2,5.8,5.8,0,0,1-3.59,1.24,6,6,0,0,1-.69,0A8.23,8.23,0,0,0,36.78,5.3c0-.13,0-.25,0-.37A5.89,5.89,0,0,0,38.22,3.42Z"/><path d="M54.39,2c1.88,0,2.11,0,2.85,0a3.9,3.9,0,0,1,1.31.24,2.18,2.18,0,0,1,.81.53,2.18,2.18,0,0,1,.53.81,3.9,3.9,0,0,1,.24,1.31c0,.74,0,1,0,2.85s0,2.11,0,2.85a3.9,3.9,0,0,1-.24,1.31,2.34,2.34,0,0,1-1.34,1.34,3.9,3.9,0,0,1-1.31.24c-.74,0-1,0-2.85,0s-2.11,0-2.85,0a3.9,3.9,0,0,1-1.31-.24,2.34,2.34,0,0,1-1.34-1.34,3.9,3.9,0,0,1-.24-1.31c0-.74,0-1,0-2.85s0-2.11,0-2.85a3.9,3.9,0,0,1,.24-1.31,2.18,2.18,0,0,1,.53-.81,2.18,2.18,0,0,1,.81-.53A3.9,3.9,0,0,1,51.54,2c.74,0,1,0,2.85,0m0-1.27c-1.92,0-2.16,0-2.91,0a5.18,5.18,0,0,0-1.71.33,3.46,3.46,0,0,0-1.25.81,3.46,3.46,0,0,0-.81,1.25,5.18,5.18,0,0,0-.33,1.71c0,.75,0,1,0,2.91s0,2.16,0,2.91a5.18,5.18,0,0,0,.33,1.71,3.61,3.61,0,0,0,2.06,2.06,5.18,5.18,0,0,0,1.71.33c.75,0,1,0,2.91,0s2.16,0,2.91,0A5.18,5.18,0,0,0,59,14.43a3.61,3.61,0,0,0,2.06-2.06,5.18,5.18,0,0,0,.33-1.71c0-.75,0-1,0-2.91s0-2.16,0-2.91a5.18,5.18,0,0,0-.33-1.71,3.46,3.46,0,0,0-.81-1.25A3.46,3.46,0,0,0,59,1.07,5.18,5.18,0,0,0,57.29.74c-.75,0-1,0-2.91,0Z"/><path d="M54.39 4.13A3.62 3.62 0 1 0 58 7.75 3.62 3.62 0 0 0 54.39 4.13m0 6a2.35 2.35 0 1 1 2.35 -2.35A2.35 2.35 0 0 1 54.39 10.1"/><circle cx="58.15" cy="3.99" r=".85"/><path d="M24.14,29.32h2.93v9.42H24.14Zm1.47-4.68a1.7,1.7,0,1,1-1.7,1.7,1.7,1.7,0,0,1,1.7-1.7"/><path d="m28.91 29.32h2.81v1.29a3.08 3.08 0 0 1 2.77 -1.52c3 0 3.51 2 3.51 4.49v5.17h-2.89v-4.59c0-1.09 0-2.5-1.52-2.5s-1.76 1.19-1.76 2.42v4.66h-2.92"/><path d="M61.8,35.85a4.4,4.4,0,0,1-3-2.51v0a.66.66,0,0,1-.07-.55c.12-.28.55-.41.84-.51l.22-.07c.51-.2.76-.45.76-.73a.61.61,0,0,0-.46-.52h0a.83.83,0,0,0-.31-.06.69.69,0,0,0-.29.06,1.75,1.75,0,0,1-.65.18.57.57,0,0,1-.25-.06l0-.32v0a7.49,7.49,0,0,0-.19-3,4,4,0,0,0-3.71-2.39h-.3a4,4,0,0,0-3.7,2.39,7.49,7.49,0,0,0-.19,3l0,.36a.6.6,0,0,1-.29.06,1.67,1.67,0,0,1-.69-.18.56.56,0,0,0-.24,0,.74.74,0,0,0-.73.5c0,.22.06.53.75.8l.22.07c.29.09.72.23.84.51a.66.66,0,0,1-.07.55v0a4.4,4.4,0,0,1-3,2.51.31.31,0,0,0-.26.32.42.42,0,0,0,0,.14c.15.36.8.62,2,.8a1.46,1.46,0,0,1,.1.35c0,.11,0,.23.09.35a.35.35,0,0,0,.36.26A1.89,1.89,0,0,0,50,38a4,4,0,0,1,.8-.09,3.51,3.51,0,0,1,.57,0,2.71,2.71,0,0,1,1.07.55,3.38,3.38,0,0,0,2.06.8h.19a3.38,3.38,0,0,0,2.06-.8A2.72,2.72,0,0,1,57.8,38a3.51,3.51,0,0,1,.57,0,4,4,0,0,1,.8.08,1.87,1.87,0,0,0,.34,0h0a.34.34,0,0,0,.35-.26c0-.12.06-.23.09-.35a1.45,1.45,0,0,1,.1-.35c1.17-.18,1.82-.44,2-.8a.41.41,0,0,0,0-.14A.31.31,0,0,0,61.8,35.85Z"/><path d="M9,26.13A7.05,7.05,0,0,0,6.16,39.64,6.2,6.2,0,0,1,6.28,38l.91-3.84A2.7,2.7,0,0,1,7,33.06c0-1,.61-1.83,1.36-1.83a.94.94,0,0,1,1,1.06,15.22,15.22,0,0,1-.62,2.5,1.09,1.09,0,0,0,1.11,1.36c1.34,0,2.24-1.72,2.24-3.75a2.64,2.64,0,0,0-2.93-2.7,3.34,3.34,0,0,0-3.47,3.38,2,2,0,0,0,.47,1.38.34.34,0,0,1,.1.39L6,35.42a.24.24,0,0,1-.35.18A2.71,2.71,0,0,1,4.22,32.9c0-2,1.69-4.41,5-4.41a4.22,4.22,0,0,1,4.46,4c0,2.77-1.54,4.83-3.81,4.83a2,2,0,0,1-1.72-.88s-.41,1.62-.5,1.94A5.92,5.92,0,0,1,7,39.94,7.05,7.05,0,1,0,9,26.13Z"/></svg>