<svg xmlns="http://www.w3.org/2000/svg" viewBox="0 0 64 46.74"><rect width="64" height="46.74" rx="5"/><g fill="#fff" transform="translate(0-9.43)"><path d="M33.59 38.33L30.9 41a3.31 3.31 0 0 1-4.68 0l-.74-.74a3.31 3.31 0 0 1 0-4.68l3.06-3.06a3.31 3.31 0 0 1 4.68 0l1.11 1.11a.79.79 0 0 0 1.11-1.11l-1.11-1.11a4.89 4.89 0 0 0-6.91 0l-3.06 3.06a4.89 4.89 0 0 0 0 6.91l.74.74a4.89 4.89 0 0 0 6.91 0l2.69-2.69a.77.77 0 0 0 0-1.11.79.79 0 0 0-1.11.01z"/><path d="M33.37 25.48L31 27.8a.79.79 0 0 0 1.11 1.11l2.32-2.32a3.31 3.31 0 0 1 4.68 0l.74.74a3.31 3.31 0 0 1 0 4.68l-2.69 2.69a3.31 3.31 0 0 1-4.68 0l-1.06-1.1a.79.79 0 0 0-1.11 1.11l1.11 1.11a4.89 4.89 0 0 0 6.91 0L41 33.13a4.89 4.89 0 0 0 0-6.91l-.74-.74a4.89 4.89 0 0 0-6.89 0z"/></g></svg>