<svg data-name="Layer 1" xmlns="http://www.w3.org/2000/svg" viewBox="0 0 64 46.74"><defs><style>.cls-1{fill:#fff;}</style></defs><title>three_column_taxonomy</title><rect width="64" height="46.74" rx="5" ry="5"/><path class="cls-1" d="M11.57,27.9,8.88,30.57a3.31,3.31,0,0,1-4.68,0l-.74-.74a3.31,3.31,0,0,1,0-4.68l3.06-3.06a3.31,3.31,0,0,1,4.68,0l1.11,1.11a.79.79,0,0,0,1.11-1.11L12.31,21A4.89,4.89,0,0,0,5.4,21L2.34,24a4.89,4.89,0,0,0,0,6.91l.74.74a4.89,4.89,0,0,0,6.91,0L12.68,29a.77.77,0,0,0,0-1.09l0,0A.79.79,0,0,0,11.57,27.9Z"/><path class="cls-1" d="M11.35,15,9,17.37a.79.79,0,0,0,1.11,1.11l2.32-2.32a3.31,3.31,0,0,1,4.68,0l.74.74a3.31,3.31,0,0,1,0,4.68l-2.69,2.69a3.31,3.31,0,0,1-4.68,0L9.4,23.17a.79.79,0,0,0-1.11,1.11L9.4,25.39a4.89,4.89,0,0,0,6.91,0L19,22.7a4.89,4.89,0,0,0,0-6.91L18.24,15A4.89,4.89,0,0,0,11.35,15Z"/><path class="cls-1" d="M32.91,27.9l-2.69,2.67a3.31,3.31,0,0,1-4.68,0l-.74-.74a3.31,3.31,0,0,1,0-4.68l3.06-3.06a3.31,3.31,0,0,1,4.68,0l1.11,1.11a.79.79,0,0,0,1.11-1.11L33.65,21a4.89,4.89,0,0,0-6.91,0L23.68,24a4.89,4.89,0,0,0,0,6.91l.74.74a4.89,4.89,0,0,0,6.91,0L34,29a.77.77,0,0,0,0-1.09l0,0A.79.79,0,0,0,32.91,27.9Z"/><path class="cls-1" d="M32.69,15l-2.37,2.32a.79.79,0,0,0,1.11,1.11l2.32-2.32a3.31,3.31,0,0,1,4.68,0l.74.74a3.31,3.31,0,0,1,0,4.68l-2.69,2.69a3.31,3.31,0,0,1-4.68,0l-1.06-1.1a.79.79,0,0,0-1.11,1.11l1.11,1.11a4.89,4.89,0,0,0,6.91,0l2.67-2.69a4.89,4.89,0,0,0,0-6.91L39.58,15A4.89,4.89,0,0,0,32.69,15Z"/><path class="cls-1" d="M54.25,27.9l-2.69,2.67a3.31,3.31,0,0,1-4.68,0l-.74-.74a3.31,3.31,0,0,1,0-4.68l3.06-3.06a3.31,3.31,0,0,1,4.68,0L55,23.2a.79.79,0,0,0,1.11-1.11L55,21a4.89,4.89,0,0,0-6.91,0L45,24a4.89,4.89,0,0,0,0,6.91l.74.74a4.89,4.89,0,0,0,6.91,0L55.36,29a.77.77,0,0,0,0-1.09l0,0A.79.79,0,0,0,54.25,27.9Z"/><path class="cls-1" d="M54,15l-2.37,2.32a.79.79,0,0,0,1.11,1.11l2.32-2.32a3.31,3.31,0,0,1,4.68,0l.74.74a3.31,3.31,0,0,1,0,4.68l-2.69,2.69a3.31,3.31,0,0,1-4.68,0l-1.06-1.1A.79.79,0,0,0,51,24.28l1.11,1.11a4.89,4.89,0,0,0,6.91,0l2.67-2.69a4.89,4.89,0,0,0,0-6.91L60.92,15A4.89,4.89,0,0,0,54,15Z"/></svg>