<svg data-name="Layer 1" xmlns="http://www.w3.org/2000/svg" viewBox="0 0 64 46.74"><defs><style>.cls-1{fill:#fff;}</style></defs><title>two_column_taxonomy</title><rect width="64" height="46.74" rx="5" ry="5"/><path class="cls-1" d="M18.91,27.9l-2.69,2.67a3.31,3.31,0,0,1-4.68,0l-.74-.74a3.31,3.31,0,0,1,0-4.68l3.06-3.06a3.31,3.31,0,0,1,4.68,0l1.11,1.11a.79.79,0,0,0,1.11-1.11L19.65,21a4.89,4.89,0,0,0-6.91,0L9.68,24a4.89,4.89,0,0,0,0,6.91l.74.74a4.89,4.89,0,0,0,6.91,0L20,29a.77.77,0,0,0,0-1.09l0,0A.79.79,0,0,0,18.91,27.9Z"/><path class="cls-1" d="M18.69,15l-2.37,2.32a.79.79,0,0,0,1.11,1.11l2.32-2.32a3.31,3.31,0,0,1,4.68,0l.74.74a3.31,3.31,0,0,1,0,4.68l-2.69,2.69a3.31,3.31,0,0,1-4.68,0l-1.06-1.1a.79.79,0,0,0-1.11,1.11l1.11,1.11a4.89,4.89,0,0,0,6.91,0l2.67-2.69a4.89,4.89,0,0,0,0-6.91L25.58,15A4.89,4.89,0,0,0,18.69,15Z"/><path class="cls-1" d="M46.91,27.9l-2.69,2.67a3.31,3.31,0,0,1-4.68,0l-.74-.74a3.31,3.31,0,0,1,0-4.68l3.06-3.06a3.31,3.31,0,0,1,4.68,0l1.11,1.11a.79.79,0,0,0,1.11-1.11L47.65,21a4.89,4.89,0,0,0-6.91,0L37.68,24a4.89,4.89,0,0,0,0,6.91l.74.74a4.89,4.89,0,0,0,6.91,0L48,29a.77.77,0,0,0,0-1.09l0,0A.79.79,0,0,0,46.91,27.9Z"/><path class="cls-1" d="M46.69,15l-2.37,2.32a.79.79,0,0,0,1.11,1.11l2.32-2.32a3.31,3.31,0,0,1,4.68,0l.74.74a3.31,3.31,0,0,1,0,4.68l-2.69,2.69a3.31,3.31,0,0,1-4.68,0l-1.06-1.1a.79.79,0,0,0-1.11,1.11l1.11,1.11a4.89,4.89,0,0,0,6.91,0l2.67-2.69a4.89,4.89,0,0,0,0-6.91L53.58,15A4.89,4.89,0,0,0,46.69,15Z"/></svg>